<?xml version="1.0" encoding="utf-8"?>
<!-- Generator: Adobe Illustrator 27.1.0, SVG Export Plug-In . SVG Version: 6.00 Build 0)  -->
<!DOCTYPE svg PUBLIC "-//W3C//DTD SVG 1.0//EN" "http://www.w3.org/TR/2001/REC-SVG-20010904/DTD/svg10.dtd" [
	<!ENTITY ns_extend "http://ns.adobe.com/Extensibility/1.0/">
	<!ENTITY ns_ai "http://ns.adobe.com/AdobeIllustrator/10.0/">
	<!ENTITY ns_graphs "http://ns.adobe.com/Graphs/1.0/">
	<!ENTITY ns_vars "http://ns.adobe.com/Variables/1.0/">
	<!ENTITY ns_imrep "http://ns.adobe.com/ImageReplacement/1.0/">
	<!ENTITY ns_sfw "http://ns.adobe.com/SaveForWeb/1.0/">
	<!ENTITY ns_custom "http://ns.adobe.com/GenericCustomNamespace/1.0/">
	<!ENTITY ns_adobe_xpath "http://ns.adobe.com/XPath/1.0/">
]>
<svg version="1.0" id="Capa_1" xmlns:x="&ns_extend;" xmlns:i="&ns_ai;" xmlns:graph="&ns_graphs;"
	 xmlns="http://www.w3.org/2000/svg" xmlns:xlink="http://www.w3.org/1999/xlink" x="0px" y="0px" width="566.9px" height="566.9px"
	 viewBox="131.0 113.6 305.0 305.0" enable-background="new 0 0 566.9 566.9" xml:space="preserve">
<metadata>
	<sfw  xmlns="&ns_sfw;">
		<slices></slices>
		<sliceSourceBounds  bottomLeftOrigin="true" height="566.9" width="1101" x="0" y="-566.9"></sliceSourceBounds>
	</sfw>
</metadata>






<g>
	
		<linearGradient id="SVGID_00000112632932428017713900000014290599361319351185_" gradientUnits="userSpaceOnUse" x1="282.3713" y1="133.0026" x2="284.5054" y2="394.0341">
		<stop  offset="0" style="stop-color:#C8960A"/>
		<stop  offset="1" style="stop-color:#F0C040"/>
	</linearGradient>
	<path fill="url(#SVGID_00000112632932428017713900000014290599361319351185_)" d="M283.5,135.6c72.1,0,130.5,58.4,130.5,130.5
		c0,72.1-58.4,130.5-130.5,130.5c-72.1,0-130.5-58.4-130.5-130.5C152.9,194,211.4,135.6,283.5,135.6z M410.2,266.1
		c0-70-56.8-126.8-126.8-126.8c-70,0-126.8,56.8-126.8,126.8c0,70,56.8,126.8,126.8,126.8C353.5,392.9,410.2,336.1,410.2,266.1z"/>
	
		<linearGradient id="SVGID_00000120546354130202308510000006327659503171280803_" gradientUnits="userSpaceOnUse" x1="142.9296" y1="266.105" x2="423.9996" y2="266.105">
		<stop  offset="0" style="stop-color:#D4A000"/>
		<stop  offset="1" style="stop-color:#B88A00"/>
	</linearGradient>
	<path fill="url(#SVGID_00000120546354130202308510000006327659503171280803_)" d="M283.5,125.6c77.6,0,140.5,62.9,140.5,140.5
		c0,77.6-62.9,140.5-140.5,140.5c-77.6,0-140.5-62.9-140.5-140.5C142.9,188.5,205.8,125.6,283.5,125.6z M414,266.1
		c0-72.1-58.4-130.5-130.5-130.5c-72.1,0-130.5,58.4-130.5,130.5c0,72.1,58.4,130.5,130.5,130.5C355.5,396.6,414,338.2,414,266.1z"
		/>
	
		<linearGradient id="SVGID_00000110446447916352284820000001588579827431220647_" gradientUnits="userSpaceOnUse" x1="133.2596" y1="266.105" x2="433.6696" y2="266.105">
		<stop  offset="0" style="stop-color:#C8960A"/>
		<stop  offset="1" style="stop-color:#F0C040"/>
	</linearGradient>
	<path fill="url(#SVGID_00000110446447916352284820000001588579827431220647_)" d="M283.5,115.9c83,0,150.2,67.2,150.2,150.2
		c0,83-67.2,150.2-150.2,150.2c-82.9,0-150.2-67.2-150.2-150.2C133.3,183.1,200.5,115.9,283.5,115.9z M424,266.1
		c0-77.6-62.9-140.5-140.5-140.5c-77.6,0-140.5,62.9-140.5,140.5c0,77.6,62.9,140.5,140.5,140.5C361.1,406.6,424,343.7,424,266.1z"
		/>
	<polygon fill="#C49000" points="283.5,266.1 222.5,326.2 254.5,280.2 	"/>
	<polygon fill="#B07800" points="283.5,266.1 269.2,293.9 222.5,326.2 	"/>
	<polygon fill="#8B6200" points="283.5,266.1 283.5,371.2 269.2,293.9 	"/>
	<polygon fill="#D4A800" points="283.5,266.1 297.6,294.9 283.5,371.2 	"/>
	<polygon fill="#9A7000" points="283.5,266.1 342.8,326.2 297.6,294.9 	"/>
	<polygon fill="#E8BC50" points="311,280.4 342.8,326.2 283.5,266.1 	"/>
	<polygon fill="#9A7000" points="283.5,266.1 254.5,252.1 222.5,206 	"/>
	<polygon fill="#E0B840" points="283.5,266.1 178.4,266.1 254.5,252.1 	"/>
	<polygon fill="#A07800" points="283.5,266.1 254.5,280.2 178.4,266.1 	"/>
	<polygon fill="#A07800" points="388.5,266.1 311,280.4 283.5,266.1 	"/>
	<polygon fill="#E0B840" points="388.5,266.1 283.5,266.1 311,251.8 	"/>
	<polygon fill="#B88A00" points="342.8,206 311,251.8 283.5,266.1 	"/>
	<polygon fill="#C8A020" points="342.8,206 283.5,266.1 297.6,237.4 	"/>
	<polygon fill="#A88010" points="283.5,161 283.5,266.1 269.2,238.3 	"/>
	<polygon fill="#ECC050" points="283.5,266.1 222.5,206 269.2,238.3 	"/>
	<polygon fill="#DDB830" points="283.5,161 297.6,237.4 283.5,266.1 	"/>
</g>
</svg>
