<svg xmlns="http://www.w3.org/2000/svg" viewBox="0 0 315.67 357.17">
<path class="color1" style="fill:#696b74;" d="M201.34,357.17l-.14,0a2.26,2.26,0,0,1-.89-.78c-.12-.14-.28-.33-.43-.48l-1.34-1.32.51,1.81-.09.11a2.22,2.22,0,0,1-.57-.14,1.33,1.33,0,0,1-.87-.76l-.76-1.7-.19,1.85c0,.32-.1.34-.13.36h0a.23.23,0,0,1-.16-.06,1.39,1.39,0,0,1-.4-.86c-.09-.41-.18-.82-.63-.92a1.27,1.27,0,0,0-.28,0,2.54,2.54,0,0,0-.58.08,1.43,1.43,0,0,1-.34.06.25.25,0,0,1-.16-.05c-.11-.09-.11-.3-.11-.38v-.55h-.55c-.15,0-.3-.15-.4-.25a3.37,3.37,0,0,0-.57-.48,1,1,0,0,0-.56-.18,2,2,0,0,0-.31,0,2.16,2.16,0,0,1-.29,0,.73.73,0,0,1-.57-.29c-.48-.51-.72-1-.61-1.22a.24.24,0,0,1,.18-.12l.45-.08-.05-.46s.06-.11.09-.14a.73.73,0,0,0,.25-.47.4.4,0,0,1,0-.15l.21-.68-.72,0a.57.57,0,0,1-.46-.24.82.82,0,0,1-.09-.94.57.57,0,0,1,.32-.25l.36-.12-.17.3,1.08-.23a2,2,0,0,0,.56-.18l.55-.3-.41-.47a1.47,1.47,0,0,0-.43-.34l-.58-.31-.14.65a1.13,1.13,0,0,1-.08.22l-.23.4-.25-.37a1.07,1.07,0,0,1-.07-.15l-.15-.39-.41.08-.26.07a1.66,1.66,0,0,1-.33.06c-.14,0-.13-.08-.13-.09s.07-.25.36-.49l.95-.79-1.23-.09a.74.74,0,0,1-.24-.08l-.27-.12-.37.93-.29-.35.1-.39c-.24.2-.34.22-.37.22a.21.21,0,0,1-.14-.09c-.09-.11-.11-.22.08-.54l.23-.39-.33-.32c-.08-.05-.09-.09-.09-.09s.19-.06.24-.06l.54-.07,0-.39c0-.13.09-.2.24-.27l.28-.13,0-.31a2.55,2.55,0,0,1,.11-.55l.27-.94-.92.33a.78.78,0,0,1-.22,0h-.13c-.25,0-.28-.16-.3-.22l-.09-.33-.34,0a.45.45,0,0,1-.36-.24.46.46,0,0,1,.15-.64,4.76,4.76,0,0,0,.78-.72l.85-1.07-1.34.26h0c-.13,0-.2-.06-.32-.3a1.38,1.38,0,0,0-.44-.59.26.26,0,0,1-.05-.37,2,2,0,0,1,1.27-.77l.11,0,1.13.47-.47-1.13a.15.15,0,0,1,0-.1,1.37,1.37,0,0,1,.3-1.11.6.6,0,0,1,.21-.13l.5-.12-.15-.55-.13-.26-.2-.06a1.12,1.12,0,0,0-.31-.05,1.15,1.15,0,0,0-.41.08.92.92,0,0,1-.26.05c-.06,0-.16,0-.26-.24l-.47-1.17.39-.23-.22-.43a.34.34,0,0,1,0-.46,1.42,1.42,0,0,1,.62-.32l.21-.06.33-.13v-.35c0-.12,0-.17.06-.19s.09-.07.23-.07h.88l-.44.44-.34.37.46.42.78-.59L190,330l.62-.09.15.3,0-.33.52-.08-.2-.6h-.25l.07-.68c.05-.13.07-.16.1-.18l.29-.22-.13-.35c-.06-.16-.06-.25,0-.28l.15-.22-.1-.25a1.42,1.42,0,0,1-.08-.57,1.08,1.08,0,0,1,.27-.67l.12-.18.11-.22-.11-.22c-.24-.48,0-.89.34-1.42l.16-.24,0-.06a1.21,1.21,0,0,0-.06-.65c-.12-.47-.12-.73.17-.92l.89-.59-1-.31a.24.24,0,0,1-.13-.09l-.38-.62-.44.59a.31.31,0,0,1-.19.11l-.35.06-.05.35a8.87,8.87,0,0,0,0,1.06c0,1.15,0,2.11-.6,2.15-.21,0-.39,0-.55,0s-.32,0-.37-.1-.11-.52,0-1.28c.14-1.1.33-2.12.79-2.18l.55-.06-.11-.53a4.42,4.42,0,0,0-.2-.61,2,2,0,0,1,.08-1.47,3.08,3.08,0,0,0,.19-.9,1.52,1.52,0,0,1,.28-.94,3.63,3.63,0,0,0,.34-.75l.07-.21a1.75,1.75,0,0,0-.16-1.84,2,2,0,0,1-.17-1.34,2.17,2.17,0,0,0-.09-1.2,1.42,1.42,0,0,1-.14-1.28.44.44,0,0,1,.4-.19h.2l.14-.14c.13-.11.19-.26.35-.76.07-.21.15-.44.25-.71s.25-.6.42-1a12.78,12.78,0,0,0,1.14-3.31,3.6,3.6,0,0,1,.44-1.37,1.64,1.64,0,0,0,.27-1.13,1,1,0,0,1,.25-.95.85.85,0,0,0,.16-.22l0-.1v-.11c0-.11,0-.33,0-.61a17.31,17.31,0,0,0,0-3.8,1.67,1.67,0,0,1,.41-1.45,1.42,1.42,0,0,0,.35-.74,2.43,2.43,0,0,0-.46-1.15c-.39-.7-.53-1.07-.3-1.26a1.9,1.9,0,0,0,.89-1.73,2.15,2.15,0,0,1,.27-1.2,2.86,2.86,0,0,0,.27-.9,8.56,8.56,0,0,1,.32-1.48,15,15,0,0,0,.57-3.11c0-.29,0-.56,0-.8v-.12a3.68,3.68,0,0,1,.15-1.65l.19-.3-.24-.28a.63.63,0,0,1-.13-.69,26.3,26.3,0,0,0,.81-3,16.37,16.37,0,0,0-.14-5.17,3.12,3.12,0,0,1-.05-1.27c0-.24,0-.4,0-.54v-.29l-.26-.17a6.29,6.29,0,0,1-2.26-1.74c-.45-.78-3.4-2.37-5.8-3.57a11,11,0,0,1-2.51-1.7,6.63,6.63,0,0,0-.65-.53c-.67-.46-1-1.44-.76-1.83l.08-.12v-.14a5.16,5.16,0,0,0-1.28-2.32,31.6,31.6,0,0,1-3.12-5.93c-.22-.54-.38-1-.51-1.33a4.6,4.6,0,0,0-.92-1.75,8.62,8.62,0,0,1-.86-1.24,5.92,5.92,0,0,0-1.15-1.53,9.29,9.29,0,0,0-.79-.5c-.73-.45-1.45-.89-1.39-1.24a.23.23,0,0,1,.18-.21l.53-.17-.34-.75c-.35-.75-.76-1.62-.51-2.16a4.19,4.19,0,0,1,1.14-1.5l.29-.21.4-.08h0a1,1,0,0,0,.81-.51l.47-.84-1,.1a.68.68,0,0,1-.45-.22,4.5,4.5,0,0,0-.72-.53c-.41-.26-.48-.36-.44-.5a2.08,2.08,0,0,1,.1-.24,1,1,0,0,0,0-1.09.9.9,0,0,1-.16-.74,1.06,1.06,0,0,1,.6-.64,1.11,1.11,0,0,0,.29-.19l.16-.16v-.23a1,1,0,0,1,.1-.49,1.44,1.44,0,0,1,.49-.58.75.75,0,0,0,.4-.63V230c0-.94.16-1.28.67-1.31a2.44,2.44,0,0,0,1.18-.33l.2-.15v-.45l0-.42.15-.27c.08-.15.14-.19.15-.19l.2-.09.1-.31c.18-.55.37-.89.8-.91.75,0,1.17-.38,1.65-1.34.09-.19.19-.36.27-.51.27-.49.37-.69.33-.92l0-.14-.1-.11a5.62,5.62,0,0,1-.53-2.85c0-.18.07-.29.14-.33l1.54-1-1.46,0-.08-.18a.8.8,0,0,1-.05-.44,1.3,1.3,0,0,0-.35-1.12l-.44-.43-.56-.54c-1.13-1.13-1-1.54-.83-1.75a.75.75,0,0,0,.23-.66c-.08-.35-.49-.58-.81-.72a1.34,1.34,0,0,0-.56-.1,2.58,2.58,0,0,0-1.11.25.93.93,0,0,0-.56.56c-.09.32-.34.44-.66.57l-.68.26.49.54.1.1c.3.3.35.43.26.62a1.45,1.45,0,0,1-1,.72h0a.5.5,0,0,1-.47-.31.8.8,0,0,0-.63-.46,1.34,1.34,0,0,1-.84-.52,4.27,4.27,0,0,0-2.59-1.17,2.93,2.93,0,0,0-.49,0,1.26,1.26,0,0,1-.95-.3.91.91,0,0,1-.21-.72.91.91,0,0,0-.28-.68,1.92,1.92,0,0,0-1.15-.57c-.18,0-.28-.12-.42-.37l-.33-.59-.5.42a.36.36,0,0,1-.29.13,1.45,1.45,0,0,1-.51-.13,1.21,1.21,0,0,1-.79-1,.79.79,0,0,1,.26-.74l1.36-.91h-1.26a1.36,1.36,0,0,0-.64-.69,5.72,5.72,0,0,1-1.28-1.23,5.55,5.55,0,0,0-1.17-1.13.59.59,0,0,1-.29-.32l-.06-.16,0-.27a1,1,0,0,0,0-.59l-.28-.56-.77.63h-.31a11.66,11.66,0,0,1-3.64-1.13l-.18-.1-.22-.17a1.44,1.44,0,0,0-1-.23h-.62a2.21,2.21,0,0,1-1.19-.25,18.2,18.2,0,0,1-1.69-1.43l-.75-.66a7.87,7.87,0,0,0-1.93-1.47l-.45-.2a4.73,4.73,0,0,0-2-.57,3.17,3.17,0,0,0-1.17.23,7.2,7.2,0,0,1-2.58.63,2.69,2.69,0,0,1-1.48-.4,18.14,18.14,0,0,0-4.55-2,9.24,9.24,0,0,1-2.48-1.2,8,8,0,0,0-1.48-.8,7.74,7.74,0,0,0-1.42-.35,3.69,3.69,0,0,1-1.79-.63l-.53-.46a5.14,5.14,0,0,0-2.37-1.51c-1-.09-1.56-2.09-1.61-2.49,0-.07,0-.16.24-.25l.46-.17-.15-.46a.74.74,0,0,1,.08-.57.93.93,0,0,0,.09-.74l-.12-.33a6.53,6.53,0,0,0-.87-1.85,58.33,58.33,0,0,0-4.32-4.82,3.34,3.34,0,0,1-.64-.79c-.2-.34-.35-.47-1-.72s-1.16-.6-1.29-.93a.74.74,0,0,1,0-.63,1,1,0,0,0,0-1l-.12-.15-.19,0c-.23,0-.37-.2-.56-.45a1.4,1.4,0,0,0-.85-.63c-.87-.15-1-1.12-1-1.23l0-.27-.25-.13a2,2,0,0,0-.33-.15,2.66,2.66,0,0,1-1.1-.72,7.84,7.84,0,0,0-1-1l-.32-.25-.31.26a.77.77,0,0,1-.41.19l-.1,0c-.12,0-.27-.24-.27-.85a1.21,1.21,0,0,1,.16-.74l.15-.22-.11-.25a10.23,10.23,0,0,0-.55-1c-.69-1.24-.54-1.79-.49-2l.2-.71-.73.08h-.21c-.34,0-.42-.12-.47-.24a.86.86,0,0,0-.53-.48l-.07,0h-.17a.62.62,0,0,0-.3.07.41.41,0,0,1-.19.06.35.35,0,0,1-.24-.11l-1.25-1,.45,1.56a11.49,11.49,0,0,1,.47,2.38,1.73,1.73,0,0,0,1.11,1.56,5.85,5.85,0,0,0,.7.24,1.57,1.57,0,0,1,.86.43c.08.07.18.19-.09.54l-.28.36.33.31a8.83,8.83,0,0,1,1.43,2,7.39,7.39,0,0,0,1.07,1.37,4.8,4.8,0,0,1,1.16,1.66,7.68,7.68,0,0,0,1.29,2.86,1.34,1.34,0,0,1,.24,1.06v.71l.65.05c1,0,1.28.23,1.28.67a1.41,1.41,0,0,0,.28.79.86.86,0,0,1,.17.82c-.15.44-.53.83-.74.83a.24.24,0,0,1-.24-.21,4.93,4.93,0,0,0-2.14-2.59l-.58-.37c-1.12-.72-1.81-1.18-1.83-1.5a.23.23,0,0,1,.09-.18,1,1,0,0,0,.31-.75,2.26,2.26,0,0,0-.89-1.74l-.44-.4c-.71-.63-1.06-1-1.57-1h-.18a4.26,4.26,0,0,1-2.19-1.34c-.12-.14-.33-.39-.3-.53s0-.13.28-.13a2.63,2.63,0,0,1,.5.06l.32.05.53.07,0-.54a2.63,2.63,0,0,0-1-2.32c-.24-.16-.49-.31-.74-.45-.9-.54-1.68-1-1.75-1.56a10,10,0,0,0-1.7-3.92,8.72,8.72,0,0,1-.89-1.37l-.17-.31h0l-.18-.38-.06-.2a5.63,5.63,0,0,1-.21-.69,4,4,0,0,0-1.88-2.22,1.27,1.27,0,0,0-.34,0h-.37a1.72,1.72,0,0,1-1-.33,4.91,4.91,0,0,0-2.5-1c-.32,0-.39-.08-.39-.47a1.69,1.69,0,0,0-.63-1.4l-.18-.15c-1.07-.95-1.92-1.7-1.92-2.12a2.14,2.14,0,0,1,.06-.41c.09-.41.2-.92-.33-1.15-.69-.31-.71-.43-.79-1.2a1.19,1.19,0,0,0-.07-.33l-.08-.22-.22-.07a1.1,1.1,0,0,1-.66-.55,5,5,0,0,0-1.52-1.74c-.26-.15-.3-.56-.33-1.17a3.53,3.53,0,0,0-.29-1.46,3,3,0,0,1-.23-2.63,4.25,4.25,0,0,0-.66-3.25c-.4-.61-.07-1.45.22-2.18a5.1,5.1,0,0,0,.31-.94c.06-.37.08-1.07.11-1.89a25.7,25.7,0,0,1,.2-3.06,5.84,5.84,0,0,0,.06-1.25c0-.31,0-.47.07-.54l.59-.35-.49-.47a1,1,0,0,1-.26-.62,2.26,2.26,0,0,0-.46-1.14,5.69,5.69,0,0,1-1-2.68v-.07l0-.08,1,.09-1.11-1a1.9,1.9,0,0,1-.29-.29c0-.38-.29-.62-.87-.65a1,1,0,0,1-.26,0,2.84,2.84,0,0,1-.18-.31,1.46,1.46,0,0,0-1.28-1c-.09,0-.2-.11-.35-.29a1.44,1.44,0,0,0-.94-.6,2.4,2.4,0,0,1-.31-.35,1.41,1.41,0,0,0-1.06-.73h0l-.1,0h-.12a.33.33,0,0,1-.23-.07.84.84,0,0,0-.39-.77h0a1.83,1.83,0,0,1,1,.47,3.73,3.73,0,0,0,2.32.7l.64,0c.41,0,1.61,1.66,1.87,2.31s.81.69,1.4.83a2.44,2.44,0,0,1,1,.4,1.9,1.9,0,0,0,1,.54s-.28.9-.28.9l.64-.15h0a.92.92,0,0,0,0,.34l.07.34.34.05a.4.4,0,0,1,.22.1l.82.73v-1.1a2.38,2.38,0,0,1,0-.39,1.31,1.31,0,0,0-.33-1.22,2,2,0,0,1-.2-.26h.52l-.46-1c-.3-.66-.64-1.42-1.39-1.42a.84.84,0,0,0-.27,0l-.12-.11a1.47,1.47,0,0,0-1-.47,3.57,3.57,0,0,0-.54.07,2.31,2.31,0,0,1-.51.07s0,0,0,0c-.12-.77-.4-1.64-1.08-1.64a.75.75,0,0,0-.47.17h-.12a1.27,1.27,0,0,1-.88-.39A2,2,0,0,0,83.76,117a1.19,1.19,0,0,0-.37.06h-.12a2.91,2.91,0,0,1-1.38-.46c0-.48,0-1.31-.81-1.44a.33.33,0,0,1,0-.24h0a.7.7,0,0,0,.74-.52,1.29,1.29,0,0,0-.73-1.28c-.06,0-.24-.23-.36-.35-.41-.42-.82-.85-1.31-.85a.79.79,0,0,0-.61.29,1.87,1.87,0,0,0,0-1.66.81.81,0,0,0-.71-.45.91.91,0,0,0-.56.21,1.15,1.15,0,0,1-.7.28.4.4,0,0,1-.35-.14c-.07-.07-.07-.15,0-.41a1.58,1.58,0,0,0-.07-.76.8.8,0,0,0,.54-.58.73.73,0,0,0-.29-.66,4.64,4.64,0,0,1-.57-.51l-.3-.34-.3.21,0-.38-.56.16-.11,0c-.1,0-.13-.07-.13-.16a2.66,2.66,0,0,1,.06-.45l.29-1.76-1.16,1.35c-.06.07-.09.07-.12.07a.25.25,0,0,1-.18-.14,1.16,1.16,0,0,0-.2-.24l-.75-.73-.09,1c0,.15-.08.64-.25.73h0a.22.22,0,0,1-.13,0l-.4-.3-.7-.47-.08.83c0,.26-.09.31-.15.34h-.05a.72.72,0,0,1-.41-.14c-.37-.24-.34-.54-.14-1.09a1.21,1.21,0,0,0,.1-.87l-.17-.36c-.22-.45-.43-.88-.31-1.09a.27.27,0,0,1,.21-.11h0l.11,0,1.1.31-.24.37.16.13.34.26.91-.9-.88-.32-.12.19-.76-.86a2.11,2.11,0,0,1-.26-.35l-.31-.55-.46.43c-.13.12-.33.31-.46.31l-.42-.18-.27.4c-.06.11-.17.3-.26.3S68,103,68,102.85a1.4,1.4,0,0,1-.06-.24l-.2-1-.66.73-.14.07c-.13,0-.19-.18-.28-.41s-.29-.68-.59-.77c-.13,0-.19-.14-.2-.58a1.24,1.24,0,0,0-.1-.57l-.11-.22-.25,0a2.58,2.58,0,0,1-1.61-1.93.43.43,0,0,1,.06-.18l.08-.15.2-.11.14-.06a1.5,1.5,0,0,1,.43-.1l0-1a1.49,1.49,0,0,1-.5-.21l-.77-.47v.9a.83.83,0,0,1,0,.31l-.05.12-.11,0h0a1,1,0,0,1-.46-.12,6,6,0,0,1-2-1.54c-.11-.13-.23-.25-.35-.38a5.69,5.69,0,0,0-1.93-1L58,93.82a3,3,0,0,0-.42-.14c-.39-.11-.62-.19-.66-.33s0-.1.1-.25a3,3,0,0,1,.32-.29l.17-.14.39-.36-.4-.39-.25-.2-.22,0c-.17,0-.26.1-.53.34a1.83,1.83,0,0,1-1.23.6,1.6,1.6,0,0,1-.3,0,1.72,1.72,0,0,1-1.26-.84,1.13,1.13,0,0,0-.22-.27l-.24-.2-.29.13a1.77,1.77,0,0,0-.26,0c-.7.07-1.73.17-2.68.17a8,8,0,0,1-1.21-.08l-.22,0c-.95-.16-1.93-.32-2-.58l-.24-.62-.53.41a.69.69,0,0,1-.38.17.87.87,0,0,1-.51-.28.77.77,0,0,0-.55-.24c-.29,0-.57.15-1,.55a.48.48,0,0,1-.31.14.33.33,0,0,1-.14,0,.42.42,0,0,1,0-.68l.61-.53-.75-.31a.66.66,0,0,1-.27-.32.68.68,0,0,0-.65-.47l-.25,0H41.3a.56.56,0,0,1-.35-.09,3,3,0,0,0-.42-.26L40,88.18l-.12.61a.51.51,0,0,1-.35.36l-.51.18.21.49a1.92,1.92,0,0,0,.75.79c.2.13.25.19.25.24l-.3.24.12.42c.09.2.14.32.11.4A.21.21,0,0,1,40,92h-.13a2.26,2.26,0,0,1-.45-.07,4.49,4.49,0,0,0-1-.13,2.86,2.86,0,0,0-1.33.32,13.8,13.8,0,0,0-1.64,1,5.27,5.27,0,0,1-2.33,1.17c-.68,0-1.13-.2-1.16-.39s.24-.25.36-.28l.29-.1,1-.41-.93-.5a.41.41,0,0,1-.19-.18c-.1-.25,0-.64.44-1.17a1.56,1.56,0,0,0,.33-.9,1.15,1.15,0,0,1,.19-.62l.73-1L32.93,89h-.07l-.17.05a.82.82,0,0,0-.42.46,2.79,2.79,0,0,1-.46.71,3.69,3.69,0,0,1-.63.52c-.37.26-.68.49-.71,1a1.21,1.21,0,0,1-.47.85,1.24,1.24,0,0,1-.8.35H29a3.15,3.15,0,0,0-1.22.86l-.58.61,1,.25c.59.15.91.27.91.51a1.11,1.11,0,0,1-.95,1l-.32.07-.07.32a3.11,3.11,0,0,0,0,.32c-.05.44-.11.68-.36.78a2.28,2.28,0,0,1-.5.11,1.68,1.68,0,0,0-1,.47,6,6,0,0,1-2.19,1.37l-.31,0-.1.3c0,.06,0,.14-.06.19-.08.33-.15.49-.37.55-.48.12-3.24,1.39-3.63,2a2,2,0,0,0-.15.42c-.1.41-.17.66-1.08.83a3.23,3.23,0,0,0-1.3.52.82.82,0,0,1-.44.19l-.19,0a4.91,4.91,0,0,0-.55,0,1.14,1.14,0,0,0-.78.24,2.05,2.05,0,0,1-1.3.67.45.45,0,0,1-.32-.11L12.6,105l-.31.56a4.19,4.19,0,0,1-1.82,1.16,1.57,1.57,0,0,1-.4.08.31.31,0,0,1-.13,0l-.07,0,0-.16c0-.16.25-.41.57-.71a3.82,3.82,0,0,0,1-1.29c0-.14.16-.46,1-.46a7.1,7.1,0,0,1,1.14.13,5.72,5.72,0,0,0,.71.09h.24l.16-.18c1-1.13,2.4-2.48,3.3-2.58.67-.08,1.14-.71,1.56-1.27a2.55,2.55,0,0,1,.84-.86l.3-.1,0-.31c0-.15,0-.43,0-.64a3.07,3.07,0,0,1,.4-2.11L22,95l-1.51.5a2.71,2.71,0,0,1-.85.17.89.89,0,0,1-.49-.12.43.43,0,0,1-.16-.14l-.55-.7-.31.83a1.58,1.58,0,0,0-.11.55c0,.1,0,.43-.14.49h0c-.28,0-.79-.56-1.1-.9A2.42,2.42,0,0,0,15,94.91a1.3,1.3,0,0,0-1,.34l-.07.09,0,.12c-.06.3-.72.55-1.44.55a2.05,2.05,0,0,1-.37,0c-.15,0-.39-.11-.36-.29a3,3,0,0,0,0-.71c-.07-.6-.1-1.08.2-1.3l.18-.13,0-.22a3.14,3.14,0,0,0-.62-1.47l-.47-.67-.38.72a.61.61,0,0,1-.56.35,3,3,0,0,0-1,.3,2.25,2.25,0,0,1-.84.25.63.63,0,0,1-.48-.2c-.19-.18-.42-.46-.67-.75-.69-.85-1.26-1.5-1.83-1.61-.12,0-.2-.07-.23-.14s.06-.31.23-.58a1.42,1.42,0,0,0,.34-.8l0-.25-.2-.14a1.15,1.15,0,0,0-.72-.25c-.25,0-.45,0-1.14-1-.2-.29-.42-.61-.36-.76s.1-.09.31-.12a1.07,1.07,0,0,0,1-.9A1.4,1.4,0,0,1,6,84.22l.58-.09,0-.47c0-.49-.11-1.24.23-1.61a.77.77,0,0,1,.58-.23,2.2,2.2,0,0,1,1.2.5,1.62,1.62,0,0,0,.87.4.72.72,0,0,0,.48-.19,2,2,0,0,0,.66-1.13c.12-.44.22-.52.37-.52l.45.08a3.44,3.44,0,0,0,.87.13,1.93,1.93,0,0,0,1.17-.38,1.16,1.16,0,0,0,.49-.86A2.61,2.61,0,0,0,13.18,78c-.11-.11-.09-.18-.09-.2s.19-.2.42-.29l.86-.39-.63-.51a1.13,1.13,0,0,0-.78-.28,4.92,4.92,0,0,0-2.77,1.54.57.57,0,0,1-.43.21,1.74,1.74,0,0,1-.66-.2,1.78,1.78,0,0,0-.74-.23,6.73,6.73,0,0,0-.72.07H7.53a14.91,14.91,0,0,1-2,.17,3.32,3.32,0,0,1-1.47-.25,2,2,0,0,1-.94-.93,1,1,0,0,0-.58-.55c-.06,0-.15,0-.15-.11s0-.07.08-.15l.67-.66-.92-.19c-1-.21-2-.47-2.21-.83a.2.2,0,0,1,0-.2c.17-.36.83-.65,1.53-1a11,11,0,0,0,1.19-.6,1.11,1.11,0,0,1,.59-.17,1.55,1.55,0,0,1,.52.1l.69.25,0-.73c0-.19,0-.21,1-.81a3.58,3.58,0,0,1,1.73-.55,1.21,1.21,0,0,1,.63.14.33.33,0,0,1,.17.3,1.83,1.83,0,0,1-.16.51l-.36.94.83-.11a11.64,11.64,0,0,1,1.39-.14c.46,0,.76.09.89.27l.11.16.24,0h.07c.29,0,.63-.21,1.27-.7a1.8,1.8,0,0,1,.31-.17l1.1-.45-1.09-.47c-.36-.17-.39-.44-.34-.94a1.38,1.38,0,0,0,0-.54l-.12-.38-.41,0-1.22.13a11,11,0,0,1-1.25.1c-.67,0-.74-.17-.77-.25-.23-.61-1.48-3-3.3-3.48C4.38,65.35,3.15,65,3,64.51a.36.36,0,0,1,.06-.34,1.09,1.09,0,0,0,.15-.69c0-.22,0-.38.1-.47a.39.39,0,0,1,.29-.09H4.72c2,0,3.3-.34,4-1a1.91,1.91,0,0,0,.7-1.6.61.61,0,0,1,.15-.54l.23-.24c.87-.9,1.73-1.72,2.09-1.72a4.32,4.32,0,0,0,.75.05,3.41,3.41,0,0,0,2.23-.58c.17-.18.28-.18.32-.18l1,.32-.24-.95A.34.34,0,0,1,16,56.1a2,2,0,0,1,1.32-.34l.44,0a8.88,8.88,0,0,0,.91.06,3.26,3.26,0,0,0,2.26-.72c.79-.72,1.49-1.32,2-1.32l.13,0,.28.08c.56.14,1.37.35,1.33.68l.86.48a1,1,0,0,1,.68-.36l.11,0a.19.19,0,0,1,.13.22.78.78,0,0,0,.19.6.82.82,0,0,0,.61.21h.18l.68-.11a10.22,10.22,0,0,1,1.83-.24c.51,0,.84.1,1,.31a1,1,0,0,1,.18.54l0,.51.51,0a.77.77,0,0,1,.63.36l.22.28.37-.06a12.84,12.84,0,0,1,3.51-.51,7,7,0,0,1,1.6.16,10.58,10.58,0,0,1,1.9.7,4.55,4.55,0,0,0,2,.58l.41,0a6.26,6.26,0,0,1,1-.07,4.68,4.68,0,0,1,2.21.52,2.56,2.56,0,0,0,1.13.17,13.51,13.51,0,0,0,2.66-.31,2,2,0,0,1,.36,0,10.24,10.24,0,0,1,3.18.92l.7.27a3.58,3.58,0,0,0,.92.19v.51l.47,0c.48,0,1,0,1.46,0a13.08,13.08,0,0,1,1.4.06c.6,1,3.56,2.36,4.9,2.36h.39a3.8,3.8,0,0,1,1.72.54,2.1,2.1,0,0,0,.92.33.7.7,0,0,0,.52-.21.8.8,0,0,0,.27-.65c0-.45-.41-.73-.94-1.12l-.18-.14a1.54,1.54,0,0,1,1.12-.39c1.14,0,1.58-.42,1.74-.78h0a.73.73,0,0,0,0,.44.8.8,0,0,0,.77.57.85.85,0,0,0,.69-.36h.07a3.46,3.46,0,0,1,.39,0,2.37,2.37,0,0,0,.43,0,.69.69,0,0,0,.63-.3.67.67,0,0,0,0-.59l.5-.11A7.16,7.16,0,0,0,73,59.72c.33-.15.67-.31,1-.48a5.81,5.81,0,0,1,1.81-.7,2.75,2.75,0,0,0,.53.05h.23a8.43,8.43,0,0,1-2.1.72A10,10,0,0,0,71.42,61c-.4.27-.74.5-1,.62s-1.3.74-1.14,1.48c0,.2.22.55.86.58h.15a1.88,1.88,0,0,0,1.5-.6,1.05,1.05,0,0,0,.22-.76A7,7,0,0,1,74.32,61a1,1,0,0,0,.8.38A2.61,2.61,0,0,0,77,60.26c.47-.56.83-.62,1-.62l.11,0v.13l.17.25a.63.63,0,0,0,.46.19,2.3,2.3,0,0,0,1.4-.81,1.5,1.5,0,0,0,.46-1h.11a.9.9,0,0,0,.83-.46,1.08,1.08,0,0,0-.28-1l.47.29a5.54,5.54,0,0,1,1.08,1.7c.56,1.15,1.15,2.34,2.21,2.41h0c1.12,0,1.74-1.11,2.24-2,.13-.22.3-.52.43-.71,0,.07,0,.16,0,.22a1.67,1.67,0,0,0,.21.89l-.06.1c-.22.32-.49.73-.27,1.13a.79.79,0,0,0,.77.38h.26c.82,0,2.06,0,2.52-1.16a2.51,2.51,0,0,1,1.81-.49,3.4,3.4,0,0,1,2,.52A7.69,7.69,0,0,0,99,61.63a2.39,2.39,0,0,1,1,.32,6.62,6.62,0,0,0,1.82.61l1.11.23a8.49,8.49,0,0,0,1.58.27.88.88,0,0,0,.67-.25.66.66,0,0,0,.12-.17,5.34,5.34,0,0,1,2.5.89,4,4,0,0,1,.65.63,3.52,3.52,0,0,0-2.39,1.46.84.84,0,0,0,.18.95c.63.63,2.66.72,3.81.72a15.81,15.81,0,0,0,2.55-.18c.7-.11,1.27-.17,1.76-.21a5.55,5.55,0,0,0,2.1-.46,1,1,0,0,1,.41-.14c.17,0,.33.13.62.36l.21.17a1.51,1.51,0,0,0,1,.32h.17a.75.75,0,0,0,.14.32.73.73,0,0,0,.6.23.7.7,0,0,1,.48.17c.4.32.53.64.51.72h0a.33.33,0,0,1-.13.06.7.7,0,0,0-.54.77c.09.59,1,1,1.6,1a.79.79,0,0,0,.84-.69h.08a.9.9,0,0,0,.75-.48c.17-.4,0-.85-.42-1.41-1-1.41-.92-1.78-.88-1.87s.11-.08.32-.12c.57-.08,3.35-.83,3.74-1.8a1.3,1.3,0,0,0,1.29.78.74.74,0,0,1,.66.33,1.37,1.37,0,0,0,1.14.57h.6c.59,0,.91,0,1.17.34a4,4,0,0,0,2.76,1,4.24,4.24,0,0,0,.88-.09,18.75,18.75,0,0,1,3.45-.49h.32a7.52,7.52,0,0,1,.85.16,3.85,3.85,0,0,0,.8.14.75.75,0,0,0,.59-.24.68.68,0,0,0,.18-.55c0-.06,0-.13.1-.26a1.07,1.07,0,0,0,.07-1.1l0,0a1.09,1.09,0,0,0,.46.12.78.78,0,0,0,.72-.54.54.54,0,0,1,.06-.11h.06a1.57,1.57,0,0,0,.16.3c.56.88,2.06.92,2.36.92h.1a4.27,4.27,0,0,1-.41.76,1.38,1.38,0,0,0-.18,1.26,2.16,2.16,0,0,0,1.54,1.15,2.9,2.9,0,0,0,.77.12,1,1,0,0,0,.92-.43,1.16,1.16,0,0,0,0-1.15,4.48,4.48,0,0,1-.41-1.23,2.62,2.62,0,0,0,.53,0,2.08,2.08,0,0,0,1.8-1.08,1,1,0,0,1,.59-.4,1.06,1.06,0,0,0,.88-1.06,2.67,2.67,0,0,0-.46-1.76.73.73,0,0,0-.54-.24.58.58,0,0,0-.19,0,1.54,1.54,0,0,0,0-.17.63.63,0,0,0,.41-.51c0-.41-.35-.66-.6-.82a6.07,6.07,0,0,0-2-.68,5.23,5.23,0,0,1-2-.72c-.59-.47-.6-.85-.05-1.58a1.13,1.13,0,0,0,.34-.83,1,1,0,0,0-.47-.61l-.3-.23a.61.61,0,0,1-.09-.47,1.36,1.36,0,0,1,.35-.86,3.42,3.42,0,0,1,.45.18,1.87,1.87,0,0,0,.77.24.73.73,0,0,0,.73-.57,1.1,1.1,0,0,0-.34-1.1,1.41,1.41,0,0,0,1-1.4v-.42a3.36,3.36,0,0,0-.46-2.21l-.28-.32c-.29-.32-.47-.51-.38-1.56a6.43,6.43,0,0,0-.09-1.79l0,0a1.73,1.73,0,0,0,.66.19.66.66,0,0,0,.66-.5,1.1,1.1,0,0,0-.43-1.08l0,0a12,12,0,0,1,3.19-.43h.42a3.48,3.48,0,0,1,1.21.33,4.16,4.16,0,0,0,1.76.4l.4,0c.35,0,.68-.05,1-.05a2.8,2.8,0,0,1,.73.07.9.9,0,0,1-.05.09c-.18.24-.43.61-.7,1a25.43,25.43,0,0,1-2.09,2.83h0a.53.53,0,0,1-.26,0,7.17,7.17,0,0,1-1.29-.2,7,7,0,0,0-1.25-.2h-.13c-.81,0-1,.44-1,.63a1,1,0,0,0,.72,1c-.08.11-.21.27-.43.52-.41.46-.83.91-1,.91h-.1a.7.7,0,0,0-.69.76,1.11,1.11,0,0,0,1.08,1.14.75.75,0,0,0,.21,0,4.67,4.67,0,0,1,2,1.52,4.22,4.22,0,0,1-.13.51c-.14.47-.35,1.18.26,1.49a3.92,3.92,0,0,0,.57.21c.24.07.87.27.94.43,0,.54.46.82.85,1h-.08a.66.66,0,0,0-.68.64,3.1,3.1,0,0,1-.1.42c-.15.51-.38,1.29.2,1.75a.81.81,0,0,0,.54.19,1.73,1.73,0,0,0,.89-.34,2.43,2.43,0,0,1,.26-.15l.28.14a10.89,10.89,0,0,0,1.12.52,1,1,0,0,0-.8.76.92.92,0,0,0,.47.94,4.76,4.76,0,0,1,.11.86c.06.81.12,1.65.84,1.65h.12c.59-.1.72-.7.81-1.1,0-.16.11-.5.19-.54a1.35,1.35,0,0,0,.78-1.14,1,1,0,0,1,.14-.39.39.39,0,0,1,.28-.11,1.23,1.23,0,0,1,.85.53,3.21,3.21,0,0,0,1,.76c.25.14.25.14.26.32a3.41,3.41,0,0,0,.19.89,1.33,1.33,0,0,0-1,1.28c-.07,1.06,1.14,2.19,1.51,2.51a2,2,0,0,1,.41.61c.16.31.35.68.76.68a.89.89,0,0,0,.71-.53c.1-.19.27-.24.6-.3a1.07,1.07,0,0,0,.77-.4.79.79,0,0,0,.11-.63,4.26,4.26,0,0,0-.25-.9.92.92,0,0,0,.4-.12c1-.52,1.1-1.18,1.24-2.39.06-.49.19-.49.32-.49l.27,0,.17,0a.65.65,0,0,0,.56-.22.74.74,0,0,0,.1-.67.2.2,0,0,0,0-.07.81.81,0,0,0,.48-.86,1.43,1.43,0,0,0-1.33-1,2.21,2.21,0,0,1,0-.93c.19,0,.48,0,.8,0a5.42,5.42,0,0,1,1.94.26,3.41,3.41,0,0,0,1.43.25,4.48,4.48,0,0,1,.57,0,1.84,1.84,0,0,0,2,1.44,2.32,2.32,0,0,1,.31,0,.71.71,0,0,0-.35.59c0,.4.34.6.59.75l.14.09a1.19,1.19,0,0,1-1,.41,2.18,2.18,0,0,1-.42,0,2.81,2.81,0,0,0-.36,0A.79.79,0,0,0,172,64c-.11.45.23,1,.83,1.26.07,0,.06.12.06.17a1.3,1.3,0,0,0,.54,1.21c1.25.94,1,1.33.86,1.5s-.23.28-.24.28a1.14,1.14,0,0,0-.87.42l-.1.11a3.48,3.48,0,0,1-1.52,1.14,4.23,4.23,0,0,0-.7.33l-.28.15s-.07-.11-.15-.28a1.93,1.93,0,0,0-1-.87c-.23-.12-.35-.18-.42-.33a.91.91,0,0,0-.82-.51.92.92,0,0,0-.91.7c0,.17-.07.72.74,1a2.52,2.52,0,0,1,.8.52l-.53.12a5.3,5.3,0,0,1-.79.15l-.07-.09a1.91,1.91,0,0,0-1.55-.95c-.07,0-1.85,0-2.12.79a.67.67,0,0,0,.25.77,3.16,3.16,0,0,0,.75.41l.24.11c-.19.16-.39.35-.61.55-.52.48-1.49,1.39-1.91,1.39a7.09,7.09,0,0,1-1.73-.89,6.71,6.71,0,0,0-2.27-1.07l-.23,0c-.73,0-1,.37-1,.58s-.05.82.78,1.45a5.19,5.19,0,0,0,3.34,1.28l.48,0a3.54,3.54,0,0,1,.45,0,2.73,2.73,0,0,1,.79.09,6.05,6.05,0,0,0-1.24,1.37c-.46.62-1,1.38-1.46,1.5l-.19,0a4.69,4.69,0,0,1-1.39-.36,3.38,3.38,0,0,0-1.07-.29.69.69,0,0,0-.68.45,1.91,1.91,0,0,0,0,.89,2.05,2.05,0,0,1,0,.54h-.19l-.54,0a3.81,3.81,0,0,1-1.52-.36,16.66,16.66,0,0,0-4.23-1c-.19,0-.75,0-1,.44l-.1.22.11.31c.19.38.71.49,1.57.67a5.76,5.76,0,0,1,1.54.46c.06.81,1,.87,1.74.92.31,0,1.14.07,1.17.23a.26.26,0,0,1-.06.27,2.62,2.62,0,0,1-1.77.51c-.74,0-1.37,0-1.58.52a.68.68,0,0,0,0,.54.88.88,0,0,0-.35.52c-.12.48-.12.48-.43.52-.73.1-.8.81-.83,1.2a1.71,1.71,0,0,1-.07.4c-.41.09-1.76.45-1.76,1.61a5.38,5.38,0,0,1-.57,1.32,8.34,8.34,0,0,0-.8,1.93c-.13.58-.39,3.84.3,4.3a4.42,4.42,0,0,0,2.17.65,2.83,2.83,0,0,0,.41,0h0c.43,0,.66.38.9,1.36a7.67,7.67,0,0,0,.54,1.34,6.63,6.63,0,0,1,.36.89c-.19.3-.56.94-.34,1.36l.14.27.38.05a4.39,4.39,0,0,0,1-.29,11.26,11.26,0,0,1,2.08-.61h0a3.57,3.57,0,0,1,1.25.54,3.07,3.07,0,0,0,1.33.54h.14l.21,0a3,3,0,0,1,1.5.37,3,3,0,0,0,1.1.67,3.44,3.44,0,0,1,.68.36,3.35,3.35,0,0,0,2.46,1.73,7,7,0,0,1,2.56,1.23,2.76,2.76,0,0,0,1.88.55l.59,0,.43,0a13,13,0,0,1,1.42.11,10,10,0,0,0,1.14.09.75.75,0,0,1,.63.34c.05.09.05.15,0,.17a2.12,2.12,0,0,0-.21,2.1,7.75,7.75,0,0,1,.08,2.16c0,.26,0,.49,0,.66a1.86,1.86,0,0,0,.91,1.34c.17.14.45.36.48.46,0,.7.5,1,1,1.34a5.68,5.68,0,0,1,.62.42.92.92,0,0,1,.37.76c0,.49.26.73.63.73a5,5,0,0,1,.51.28,2.41,2.41,0,0,0,1.09.46.6.6,0,0,0,.62-.62,1.36,1.36,0,0,1,.4-.83.74.74,0,0,0,.22.21,1.31,1.31,0,0,0,.76.38h.22l.22-.19a1,1,0,0,0,.18-.76,1.05,1.05,0,0,0-.33-.74c.6-.53,1.16-1.15.37-2.24a1.7,1.7,0,0,1-.26-1,3.56,3.56,0,0,0-.26-1.3,1.07,1.07,0,0,1-.1-.66,1.75,1.75,0,0,0-.52-1.47,2.91,2.91,0,0,1-.66-1.14h0a3.72,3.72,0,0,0,2.88-1.17,7.16,7.16,0,0,1,1.24-1,3.27,3.27,0,0,0,1.75-2.1,7.83,7.83,0,0,0-.51-4.76A6.89,6.89,0,0,0,182,96a5.44,5.44,0,0,1-.68-.44s-.17-.21.71-1.22a1.86,1.86,0,0,0,.48-1.26h.07c.55-.08,1.1-.31.95-1.49a2.46,2.46,0,0,0-.53-1.34,1.73,1.73,0,0,1-.29-.56,1.86,1.86,0,0,0-.55-1,1.21,1.21,0,0,0,.57-.93.29.29,0,0,1,.08-.07.83.83,0,0,0,.38-1.12,1.44,1.44,0,0,0-.81-.79c-.31-.16-.42-.23-.46-.49s.08-.42.35-.63a1.54,1.54,0,0,0,.44-.5,1.66,1.66,0,0,1,.43,0,7,7,0,0,1,1.68.25,3.21,3.21,0,0,1,.88.4,1.14,1.14,0,0,0,.63.25.85.85,0,0,0,.53-.2l.52.21a2.4,2.4,0,0,0,.86.23.78.78,0,0,0,.35-.07l.33-.16a3.38,3.38,0,0,1,1.32-.47,1,1,0,0,1,.65.3,1.65,1.65,0,0,0,.89.42c.39,0,.39.13.39.3,0,.33.14.72.8.77l.16,0h0a.23.23,0,0,1,0,.09,1.36,1.36,0,0,0,.76.83l.12.07a.46.46,0,0,1,0,.15c.13,1.21,2,1.3,2.62,1.3H197a.81.81,0,0,1,.12.13.83.83,0,0,0,1.21.25A2,2,0,0,0,198,90.6a5.54,5.54,0,0,0,.28,1.29,2,2,0,0,1,.12.56.7.7,0,0,0-.28.57c0,.38.32.6.59.79a1.76,1.76,0,0,1,.34.3.92.92,0,0,0,.08.9,1.38,1.38,0,0,0,1.17.43h.32c.07,0,.17.25.21.35.13.28.31.69.77.69a.76.76,0,0,0,.21,0l0,0c.15.3.4.79.95.83h.11c.74,0,2.44-.63,2.44-1.67,0,0,0-.06.08-.06a.24.24,0,0,1,.19.13.67.67,0,0,0,.57.42c.46,0,.55-.47.58-.65a2.61,2.61,0,0,1,.06-.27.77.77,0,0,0,.58-.26.9.9,0,0,0,.14-.77c0-.08,0-.23,0-.25a1.29,1.29,0,0,1,.21-.2,1,1,0,0,0,.26-1.37,2.11,2.11,0,0,0,.85-1.23,1.71,1.71,0,0,1,.08-.29,4.74,4.74,0,0,0,.47.7,1.48,1.48,0,0,1,.38.66,3,3,0,0,0,.83,1.45,3.66,3.66,0,0,1,.55.77,1.91,1.91,0,0,0,.52,1.11,2,2,0,0,1,.24.38c0,.4.27.71.51.94a1.2,1.2,0,0,1,.25.28c0,.41.42.71.83,1a4.69,4.69,0,0,1,.45.38,1.76,1.76,0,0,0,.16,1.24.84.84,0,0,0,.55.33.89.89,0,0,1,.4.2c-.25.39-.59.71-.77.71a1.52,1.52,0,0,0-.82-.28.83.83,0,0,0-.87.64c0,.21,0,.74.95,1a6.52,6.52,0,0,1,3.07,2.28c.15.4.54,1.46,1.44,1.46a1.34,1.34,0,0,0,.71-.22h0a.87.87,0,0,0,.69.4,1,1,0,0,0,.55-.2s.23.2.37.32a2.26,2.26,0,0,0,1.42.69,1.76,1.76,0,0,0,.31,0,1.24,1.24,0,0,1,.27,0,.76.76,0,0,1,.66.27h0l-.46.07a4,4,0,0,0-1.61.57,1.62,1.62,0,0,1-.94.3,1.18,1.18,0,0,0-1,.49c-.08.1-.08.1-.25.11a1.29,1.29,0,0,0-.82.29,1.45,1.45,0,0,0-.42,1.47.73.73,0,0,0,.7.52,1.28,1.28,0,0,0,.86-.44c.31-.29.41-.29.46-.29h.22a1.89,1.89,0,0,0,1.22-.54,3.39,3.39,0,0,1,2-.85,1,1,0,0,1,.53.13,1.63,1.63,0,0,0-.17.3,1,1,0,0,0-.12,1,.76.76,0,0,0,.64.38H224a1.77,1.77,0,0,0,1.08-.47,1.36,1.36,0,0,1,.35-.22s.08,0,.23.22a3.78,3.78,0,0,0,1,.92l.08.06a1,1,0,0,1,0,.12c-.26.77-.47.85-.77.87-.64,0-.72.45-.73.58,0,.63.88.9,1.18,1a6.58,6.58,0,0,0-.62.58,2.45,2.45,0,0,1-1.71,1h-.1c-.36,0-.67,0-.95,0a2.36,2.36,0,0,0-2.27,1.07,5.74,5.74,0,0,1-3.14,2c-.38,0-1.7,0-3.25,0-8.83,0-9.47.58-9.71.79-.88.8-1.39,1.26-1.59,1.92h-.4a2.43,2.43,0,0,0-1.54.46,10.75,10.75,0,0,0-1.35,1.4,8.43,8.43,0,0,1-1.08,1.12,1.2,1.2,0,0,0-.24,0h-.21l-.21.17a.8.8,0,0,0-.17.6.76.76,0,0,1-.08.46,6.86,6.86,0,0,1-.88.82c-.87.73-1.35,1.14-1.17,1.64a.64.64,0,0,0,.65.39c.63,0,1.28-.65,2.39-1.8a12.43,12.43,0,0,1,2.23-2,18.84,18.84,0,0,1,6.76-2c.39,0,1.06.06,1.25.4a1.08,1.08,0,0,1,.17.85c-.16.41-.89.67-1.48.88l-.4.15a1.24,1.24,0,0,0-.9,1.33.8.8,0,0,0,.8.67,1.14,1.14,0,0,0,.8-.37,1,1,0,0,1,.3-.19.86.86,0,0,1-.13.17,1.38,1.38,0,0,0-.09,1.9,1.1,1.1,0,0,1,.24.53,1.36,1.36,0,0,0,.58.91.76.76,0,0,0-.61.45,3.17,3.17,0,0,1-1.87,1.43h0a4.15,4.15,0,0,0-2,.69l-.49.29.31.4a11.48,11.48,0,0,0-1.5,1.13.93.93,0,0,1-.65.28,1.91,1.91,0,0,1-.85-.29c-.46-.23-.58-.23-.65-.23h-.08l-.21.07-.08.09a4,4,0,0,0-.51.7c-.3.48-.52.76-.94.76h-.11l-.34.16-.08.13a.76.76,0,0,1-.63.42,2.34,2.34,0,0,0-1.33,2.08l0,.09,0,.08s.06.1-.14.34l-.37.44.48.31a1.18,1.18,0,0,1,.53.81.58.58,0,0,1-.26.62,1.67,1.67,0,0,1-.87.29,1,1,0,0,1-.5-.13l-.46-.27-.24.47a.59.59,0,0,1-.52.35l-1.15.13.87.75a.18.18,0,0,1,0,.24,6.21,6.21,0,0,1-2.9.81h-.22c-.17,0-.31,0-.44,0l-.63.1.25.59,0,.12a4,4,0,0,1-1.22,2.24c-.39.42-.61.58-.8.58h-.66l.18.63a4,4,0,0,1-.54,2.35c-.6,1.2-.84,1.21-.85,1.21l-.13-.16.11-.62a2.45,2.45,0,0,0-.3-1.91l-.58-.91-.32,1c0,.18-.11.19-.16.2l-.29.06-1.05.27.88.63a4.08,4.08,0,0,1,.92.82l.26.38-.39.41-.61.67.89.16a1.13,1.13,0,0,1,.88.9.47.47,0,0,1-.07.34l-.54.74.91.06c.32,0,.45.07.48.18s-.29.6-.89,1a1.18,1.18,0,0,1-.7.21l-.23,0-.18-.05-1.65-.7,1.06,1.45c.22.33.36.57.28.77s-.28.25-.63.31c-1.18.18-2.06.9-2.14,1.47,0,.24-.12.45-.75.45h-.44a2.52,2.52,0,0,0-1.67,1.61c-.08.35-.3.44-.75.55a2.3,2.3,0,0,0-1,.47c-.79.7-2.32,2.87-2.36,4.19a6.69,6.69,0,0,0,1.11,3.93,1.33,1.33,0,0,1,.34,1,1.11,1.11,0,0,0,.24.87,9.51,9.51,0,0,1,1.12,4.05,4.24,4.24,0,0,1-.43,1.14,4.18,4.18,0,0,0-.47,1.23.38.38,0,0,1-.41.36h0c-.46,0-1-.34-1.1-.63-.09-.44-.67-1.56-1.39-1.74-.26-.07-.33-.24-.33-.81a1.39,1.39,0,0,0-.47-1.29,1.48,1.48,0,0,1-.63-1.24,1.7,1.7,0,0,0-.21-.76c-.17-.24-.09-.52.05-.91s.33-.94-.1-1.37-.77-.83-1.1-1.22-.62-.72-.9-1a.73.73,0,0,0-.53-.24c-.32,0-.6.21-1.12.67l-.23.2a1.17,1.17,0,0,1-.74.33.85.85,0,0,1-.23,0,.64.64,0,0,1-.41-.51,2.05,2.05,0,0,0-1.87-1.34,6,6,0,0,0-1.38.27,4.56,4.56,0,0,1-1,.22.33.33,0,0,1-.21-.05.16.16,0,0,1-.06-.13v-.16L162,166l-.72.93c-.2.26-.28.26-.39.26l-.25,0a4.47,4.47,0,0,0-.69-.07h-.12a3.5,3.5,0,0,0-1.29.25l-.59.25.4.51a.35.35,0,0,1,.07.23l0,.18a.54.54,0,0,0,.25.58c.61.49.89.8.83.95s0,.09-.25.09h-.14a2.22,2.22,0,0,1-1.12-.78l-.44-.48-.35.55c0,.05-.11.18-.61.18h-.77a1.24,1.24,0,0,1-1.08-.49,6.23,6.23,0,0,0-.63-.61l-.46-.39-.29.53a.58.58,0,0,1-.34.24l-.24,0a1.36,1.36,0,0,1-1-.45,1.12,1.12,0,0,0-.26-.27l-.47-.39-.29.54-.15.09a1.71,1.71,0,0,1-.48-.15l-.6-.23-.21.39c-.19.35-.35.53-.63.53l-.17,0a2.72,2.72,0,0,0-.43-.08l-.55-.06v.55c0,.15-.05.39-.44.8a2.47,2.47,0,0,1-1.45.84,5.92,5.92,0,0,0-.65-.05.83.83,0,0,0-.38.07l-.33.14,0,.36c0,.34-.53.66-1,.91l-.33.19-.32.2.13.47a1,1,0,0,1-.41,1.32.64.64,0,0,0-.32.51v1.67l.55-.84a2,2,0,0,1,.33,1l0,.26v.3l-.14.46a13.65,13.65,0,0,0-.7,5.5v.2c.06,1.59.2,3.16.76,3.92a7.44,7.44,0,0,0,.88.92c.6.55,1.21,1.11,1.26,1.71s.29,2.06,1.13,2.06h0a2.39,2.39,0,0,1,1.3.58,2.27,2.27,0,0,0,.89.48h.16l.89-.23.21-.06a20,20,0,0,1,3.41-.76c.13,0,.16,0,.17,0a4.63,4.63,0,0,0,.87.42l.52.2.13-.55c0-.21.31-.37.53-.52.39-.25.83-.54.81-1.16a.85.85,0,0,1,.28-.82,1.06,1.06,0,0,0,.29-1c-.08-1.28.79-2.06,2.59-2.32l1.18-.2a7.28,7.28,0,0,1,1.19-.16,1.48,1.48,0,0,1,.8.22.81.81,0,0,0,.47.13,2.75,2.75,0,0,0,.47-.06,1.68,1.68,0,0,1,.37-.06.39.39,0,0,1,.23.06.62.62,0,0,1,.2.38c.12.65-.17.87-.57,1.17a4.72,4.72,0,0,0-.55.48,1.35,1.35,0,0,0-.35,1.23,5.21,5.21,0,0,1,0,1,6.17,6.17,0,0,1-.64,2.41l-.13.21-.29.27-.11,0-.16.07-.25.06-.09.24c-.08.18-.08.4,0,1.27.08.69.17,1.47-.22,1.77a1.86,1.86,0,0,0-.61,1l-.24,1,.95-.43.64-.35.69,0a6.12,6.12,0,0,1,.88.08,6.21,6.21,0,0,0,.91.09,1.93,1.93,0,0,0,.75-.13,8,8,0,0,1,2.5-.49,2.43,2.43,0,0,1,1.78.58,3.11,3.11,0,0,0,1.3.71c.41.14.76.28.88.57l.05.14v.46l0,.15a7.84,7.84,0,0,0-.08.83,1.31,1.31,0,0,1-.34,1c-.22.28-.26.69-.2,1.87a5.41,5.41,0,0,1-.06,1.56l-.18.53c-.38,1.08-.53,1.66-.31,2.06a4.7,4.7,0,0,0,.26.41,26.65,26.65,0,0,0,2,2.5,5,5,0,0,0,1,.92,4,4,0,0,0,1.89.61,1.93,1.93,0,0,0,1.32-.52,3.76,3.76,0,0,1,2.29-1.18,1.47,1.47,0,0,1,.56.11,4.51,4.51,0,0,0,.83.25,2.89,2.89,0,0,1,2,1.09l.16.25a6.55,6.55,0,0,0,.9,1.18l.4.35.32-.42.32-.45a6.09,6.09,0,0,1,1.6-1.76,1.44,1.44,0,0,0,.74-1.65l0-.27c0-.37.4-.9.83-1.26a1.79,1.79,0,0,1,.95-.48,1,1,0,0,1,.42.15l.4.22.26-.37c.13-.19.57-.23.85-.25a2.75,2.75,0,0,0,.93-.19,2.48,2.48,0,0,0,.57-.42,2,2,0,0,1,1.17-.6,2.16,2.16,0,0,0,1-.64,1.53,1.53,0,0,1,.9-.54.68.68,0,0,1,.34.11c.23.13.49.34.45.62s-.41.52-.94.62a.6.6,0,0,0-.49.4,2,2,0,0,0,.23,1.32l.15.29-.5.78c-.41.66-.71,1.19-.5,1.63a2,2,0,0,0,1.45,1.07h.11a.67.67,0,0,0,.58-.37c.2-.41,0-.94-.31-1.64a5.2,5.2,0,0,1-.3-.76l-.17-.57.3-.33a5.56,5.56,0,0,1,2-1l.48-.17.33-.14,0-.35,0-.23c0-.24,0-.4.06-.51s.09-.1.33-.1.52.21.7.52a1,1,0,0,0,.87.6l.3,0a1.34,1.34,0,0,1,1,.36,1.52,1.52,0,0,1,.41,1.21V209l.18.16a1.63,1.63,0,0,0,1.08.32,3.76,3.76,0,0,0,1.38-.27.8.8,0,0,1,.34-.07,3.76,3.76,0,0,1,1.6.65,3.4,3.4,0,0,0,1.48.62.75.75,0,0,0,.37-.09,13.79,13.79,0,0,1,3.88-1.38,3.15,3.15,0,0,1,.44,0,2.82,2.82,0,0,1,1.5.36l.39.34.32-.41a.93.93,0,0,1,.27-.19,2.15,2.15,0,0,1,.8-.18.72.72,0,0,1,.46.13,1,1,0,0,1,.38.82.43.43,0,0,1-.28.35l-.22.08-1.1.39,1,.53c.43.22.42.42.42.53a1.91,1.91,0,0,1-.37.85l-.52.78h.94a8.38,8.38,0,0,1,2,.21l.28.07.4.15.11.09a1.31,1.31,0,0,1,.33.26,3.86,3.86,0,0,0,1.14.78c.66.34.93.54.86.91a1,1,0,0,0,.21.82,1.08,1.08,0,0,0,.82.38c.23,0,.56.41.88.79a4.34,4.34,0,0,0,.69.74l.3.22.29-.22a1.29,1.29,0,0,1,.72-.28.91.91,0,0,1,.69.4.74.74,0,0,0,.64.28,5.77,5.77,0,0,0,1.07-.16c.28-.06.58-.12.87-.16h.23a3.76,3.76,0,0,1,1.28.28l.23.08.43.17a9.41,9.41,0,0,0,1.53.5,5.34,5.34,0,0,1,2.2,1.62,5.13,5.13,0,0,0,1.19,1l.22.13.13.22a4.92,4.92,0,0,1,.47,1.54,4.65,4.65,0,0,0,.7,2,4.59,4.59,0,0,0,.9.72c.73.48,1,.78.75,1.42A10.87,10.87,0,0,1,238,230l-.59.83,1,0h.22a5.25,5.25,0,0,1,2.91.77.44.44,0,0,1,.17.44l.87.5a.89.89,0,0,1,.29-.32,1.33,1.33,0,0,1,.75-.2,4.91,4.91,0,0,1,1.74.42c3.17,1.24,4.76,2.2,4.73,2.85a2.42,2.42,0,0,1-.17.67l-.64,1.64,1.4-1.06a2.56,2.56,0,0,1,1.4-.65,1,1,0,0,1,.24,0,5.69,5.69,0,0,1,1,.38,6,6,0,0,0,2.28.64,2.39,2.39,0,0,0,.66-.09,6.29,6.29,0,0,1,1.67-.24,5.64,5.64,0,0,1,4.22,2.07c1.59,1.72,3.15,2.59,4.62,2.59h.2l.34,0,.38,0c.32,0,.73,0,1,1.22.06.25.14.52.22.8a7.89,7.89,0,0,1,.19,5,8.08,8.08,0,0,1-2.81,4c-.13.06-.27.1-.41.15a2,2,0,0,0-1.51,1.33l-.16.41c-.53,1.35-1,2.41-1.45,2.71a.6.6,0,0,1-.33.1.59.59,0,0,1-.21,0l-.73-.29,0,.79a.63.63,0,0,1-.25.42c-.38.34-.44,1.18-.44,2.94a10.7,10.7,0,0,0,.1,1.24,5.58,5.58,0,0,1-.1,2.68,3.33,3.33,0,0,0-.16,1.75,1.12,1.12,0,0,1-.06.75,1.24,1.24,0,0,1-.52.4c-.25.14-.51.28-.51.67a6.81,6.81,0,0,1-.14,1.08,7.33,7.33,0,0,0-.17,1.37c0,.48-.19.57-.38.67a.63.63,0,0,0-.38.4,3.29,3.29,0,0,0-.1.37,2.57,2.57,0,0,1-.7,1.5,2,2,0,0,0-.81,1.83c0,.92-.27,1.07-.89,1.07a1.15,1.15,0,0,0-1.11,1.21.44.44,0,0,1-.14.37c-.17.18-.51.21-1,.21h-.61a12.78,12.78,0,0,1-1.28-.11,12.88,12.88,0,0,0-1.36-.11,1.25,1.25,0,0,0-.63.12l-.06,0,0,0-.3.29a2.9,2.9,0,0,1-1.24.9l-.19.05-.1.16c-.16.24-.29.36-.82.41a3.45,3.45,0,0,0-2.64,1.16c-.94.95-1.83,1.84-2.46,1.91l-.4.05,0,.4a2,2,0,0,1-.26,1,3.15,3.15,0,0,0-.15,2.11c0,.28.08.58.1.88.08,1,.12,2.8-.58,2.89s-1.3.7-2,2.14c-.12.24-.22.47-.33.7a7.59,7.59,0,0,1-2.26,3.23,3.37,3.37,0,0,1-.93.57l-.59-1.08-.37,1.14c0,.12,0,.24-.08.39a3,3,0,0,1-.35,1.07,5.56,5.56,0,0,0-.37.93,2.54,2.54,0,0,1-1.14,1.57,4.34,4.34,0,0,0-.94.93c-.16.2-.29.4-.42.59a4.31,4.31,0,0,1-1.18,1.29,3.52,3.52,0,0,1-1.9.5,7.66,7.66,0,0,1-1.13-.1,1.42,1.42,0,0,0-.27,0,.87.87,0,0,0-.45.11.54.54,0,0,1-.27.08,1.51,1.51,0,0,1-.58-.17,5.74,5.74,0,0,0-2.3-.68h-.32a.7.7,0,0,1-.32-.06l-.13-.05,0,0-.2-.16-.31-.3-.37.23a.91.91,0,0,0-.13.1.75.75,0,0,0-.19.27l-.1.26.16.22a2.77,2.77,0,0,0,1.56.64c.49.05,1.08.28,1.23.66a.51.51,0,0,1-.12.54,1.33,1.33,0,0,0-.29,1.25.75.75,0,0,0,.65.49,1.11,1.11,0,0,1,.9.56.84.84,0,0,1,0,.78c-.12.19-.38.51-.65.86a6,6,0,0,0-1.18,1.77c-.14.65-1.79,1.45-3.84,1.87a24.77,24.77,0,0,1-4,.49,2.28,2.28,0,0,1-1.14-.17l-.62-.39-.14.71a1,1,0,0,0,0,.47,2,2,0,0,0,.28.55c.15.21.21.33.19.46s-.15.26-.38.42c-.58.39-.41,1-.28,1.43a2.13,2.13,0,0,1,.1.49.85.85,0,0,1-.3.54,2.74,2.74,0,0,1-1.81.62h-.21a6.22,6.22,0,0,1-1.86-.59,5.44,5.44,0,0,0-.88-.35l-.46-.11-.13.46a2.61,2.61,0,0,0,.21,1.61,2.1,2.1,0,0,1,.07.71c0,.11,0,.26,0,.38l0,.35.33.1a1.16,1.16,0,0,1,.41.25,2.26,2.26,0,0,0,.28.21l1.6.87-.74-1.24a.59.59,0,0,1,.35-.14.82.82,0,0,1,.48.21.63.63,0,0,1,.24.73,1.34,1.34,0,0,1-1,.83.41.41,0,0,1-.21-.05l-.74-.39v.83c0,.18-.34.36-.79.41-.8.09-.8,1.27-.8,2.05s-.15,1.14-.53,1.38l.42.9-.16,0-.48-.43c0,.55-.15.56-.28.57a3.82,3.82,0,0,0-3.3,1.88,1.79,1.79,0,0,0-.13,1.54,3.07,3.07,0,0,0,1.51,1.53,3.26,3.26,0,0,0,.78.12c.82.09,1.23.17,1.23.42a3.07,3.07,0,0,1-.19.76,2.73,2.73,0,0,0-.21,1.08l0,.1,0,.09c0,.23-.73.72-1.17,1a13.52,13.52,0,0,0-1.22.88c-.89.76-1.38,1.18-1.43,2.23a1.57,1.57,0,0,1-.57,1.22,1,1,0,0,1-.57.22l-.25,0-.26.18-.12.13a3.14,3.14,0,0,1-.55.52c-.5.36-.45,1.09-.41,1.57,0,.12,0,.22,0,.3a3.25,3.25,0,0,0,.12.72,3.09,3.09,0,0,1,.11.75v.14l.06.12a5.09,5.09,0,0,0,.48.64c.46.55.68.88.54,1l-.93.41.83.52a1.17,1.17,0,0,1,.59.72.24.24,0,0,1-.1.24l-.81.59,1,.3c.07,0,.13.05.2.28a1.1,1.1,0,0,0,.41.64c.12.09.27.23.46.39,1.55,1.32,2.74,2.21,3.51,2.24.42,0,1.52.06,1.59.33,0,.11-.14.23-.25.3a3.26,3.26,0,0,1-1.28.31,2.9,2.9,0,0,0-1,.21l-.62.31-.1,0-.21-.06-.38-.14-.22.34a.36.36,0,0,1-.15.15.56.56,0,0,1-.3.07,3,3,0,0,1-.82-.18l-1.16-.39.46,1.05c.13.28.18.51.11.62A.16.16,0,0,1,201.34,357.17Zm-5.77-6.44a1.13,1.13,0,0,1,0,.26l-.11,1,.85-.47.09,0,.8-.19-.54-.62a1.84,1.84,0,0,1-.17-.22Zm-4-.48-.18.2-.67.58.84.27.24.07.55.15.07-.57a1.27,1.27,0,0,1,.06-.28l-.83-.51Zm1.12-2.33a4.1,4.1,0,0,0-.76.06l-1.65.29,1.55.66.16.23.35,0a1.39,1.39,0,0,0,.76-.29l.07-.07,0-.1.63-.79Zm6.2-.33-1,.25.83.64a1.44,1.44,0,0,0,.79.19l.17-1a2.35,2.35,0,0,0-.61-.12H199ZM236.12,294,236,294a.87.87,0,0,0-.63,1,1.61,1.61,0,0,1,0,.22l-.05,1.67,1-1.36a3.74,3.74,0,0,0,.52-.95l.37-1Zm5.45-61.61a4.63,4.63,0,0,1-.28.54l-.44.72.84,0,.14,0,.6.13v-.61a1.81,1.81,0,0,1,.07-.49Zm-5.48-1a1.47,1.47,0,0,0-.1.22.87.87,0,0,0,0,.39h1a2.1,2.1,0,0,1,.06-.24Zm-22.19-22a.45.45,0,0,1-.27.07,1,1,0,0,0-.61.23l-.87.79,1.18.08c.2.05.42.08.65.12l.57.08.08-.56a.91.91,0,0,1,.07-.25Zm-42.75-70.07c-.15,0-.54.19-.54.94a1.16,1.16,0,0,0,.62,1,2.93,2.93,0,0,0,1.49.36,4.11,4.11,0,0,0,1.9-.47l.69-.35c2.7-1.4,3.69-2,3.92-2.47l.39-.78.24,0-.08-.28.12-.25c.34-.05.82-.1,1.41-.13,1.65-.06,3.51-.48,3.94-1.25a.67.67,0,0,0,0-.71l-.08-.1.76-.8-1.31.11a3.69,3.69,0,0,0-.73.18,4.05,4.05,0,0,1-1.16.22,1.32,1.32,0,0,1-.27,0l-.46,0c-1.29,0-3.45.54-4,1.43a.94.94,0,0,0-.12.88,1.13,1.13,0,0,0,.75.77l-.42.3-.42.3a.58.58,0,0,1-.36.14,1.46,1.46,0,0,1-.51-.15,4.17,4.17,0,0,0-1.39-.35h-.12a4.2,4.2,0,0,0-2.3,1.08l-.47.35.36.36a1.54,1.54,0,0,1-.64.34c-.09,0-.13,0-.16-.11a.92.92,0,0,0-.81-.52h-.06Zm-3.72-9a14.68,14.68,0,0,0-2.08.3,6.29,6.29,0,0,0-3,1.88l-.38.46.52.3a.19.19,0,0,1,.08.07c.18.25,0,.88-.27,1.68a14.56,14.56,0,0,0-.47,1.68c-.36,1.8-.14,3.39.53,3.87a.74.74,0,0,0,.43.14,1.08,1.08,0,0,0,.56-.18c1.4-.85,1.76-1.59,1.42-2.94a7.33,7.33,0,0,1,.54-4.28,1.31,1.31,0,0,1,1-.63,1.31,1.31,0,0,0,1.09-.89,1.09,1.09,0,0,1,.39-.57l.56-.44.83.28a2.6,2.6,0,0,1,1.34,1.09c.6.92.26,1.61-.27,2.49-.08.12-.15.24-.22.36l-.88,1.57,1.57-.89a1.72,1.72,0,0,1,.84-.28,1,1,0,0,1,.3,0c.51.17.59.68.56,1.62a5.55,5.55,0,0,0,0,.59l0,.29.85.37.24-.31a5.67,5.67,0,0,0,1-3.1c0-.51.1-.61.23-.74a1.19,1.19,0,0,0,.38-.65l.16.09a4.07,4.07,0,0,0,1.84.65h.14a1.09,1.09,0,0,0,.94-.5c.24-.49-.09-1-.51-1.67a7.87,7.87,0,0,1-.72-1.28,2,2,0,0,0-2.11-1.2l-.6,0-.57,0a2.49,2.49,0,0,1-.76-.1,9.26,9.26,0,0,0-2.49-.5l-1.1,0-.42-1c-.1-.21-.24-.44-.39-.69a4,4,0,0,1-.63-1.42,1.32,1.32,0,0,0-1.53-1.16c-.55,0-.57,0-.6-.35-.25-2.12-4-2.22-4.78-2.22s-1.35.71-1.95,1.47c-.21.26-.42.52-.63.75l-.52.55.47.18a1.52,1.52,0,0,1-.94.4h-.21a6,6,0,0,0-3.92,2.07l-.2.41.38.24a.81.81,0,0,0,.44.12,3.13,3.13,0,0,0,.52-.07,2.71,2.71,0,0,1,.59-.08,1.23,1.23,0,0,1,.88.35,1,1,0,0,0,.64.23,6.34,6.34,0,0,0,2.76-1.36c.41-.28.8-.55,1.15-.74a1.38,1.38,0,0,1,.5-.2s.05,0,.07,0,0,.16-.06.46l-.23.73.6.07a.62.62,0,0,1,.58.45,1.56,1.56,0,0,0,.77.79,1.47,1.47,0,0,0,.6.13,4,4,0,0,0,1.44-.4,5,5,0,0,1,1.71-.45,1.35,1.35,0,0,1,1.17.61l.59.75.28-.89.5.2H169l.79.62-.17.06-.07.25c0,.08-.19.15-.33.19l-.33.1ZM140.8,108.79a1.89,1.89,0,0,0-2,1.75,6.21,6.21,0,0,0,3.29,4.89c.78.43.86,1.32.92,2.11.06.64.13,1.53,1,1.53h.11a1.07,1.07,0,0,0,.83-.61,3.91,3.91,0,0,0-.27-3.25,23.92,23.92,0,0,1-.92-2.3,16.53,16.53,0,0,0-1.53-3.48A1.75,1.75,0,0,0,140.8,108.79Zm-70-6.7,0,.18.14.27h.44l1.76.41-1.3-1.25a1.16,1.16,0,0,0-.5-.31l-.42.88-.18-.31Zm-2.44-2.25-.19.16-1.26,1.11,1.82-.26.34-.07.06-.34.49-1.53Zm-3.15-2.32,0,.25.18.17a1.25,1.25,0,0,0,.77.31h.12l.17-.06.18-.1.07-.2.09-.32.23-1L66,97h0l-.09,0-.73-.3ZM105,87.35a4.17,4.17,0,0,1-1,.17c-.55.06-.89.09-1,.42l-.12.24.15.29c.25.41.9.89,3.71.89.93,0,1.78-.06,2.21-.09a1.36,1.36,0,0,0,1.41-1.14c.07-.3.09-.34.34-.39l.61-.08c.75-.08,1-.19,2.12-1.13a9.64,9.64,0,0,1,2.35-1.26c1.41-.63,2.64-1.16,2.64-2.1,0-.36-.24-.78-.92-.78-1.34,0-4.71,1.76-5.39,2.45a.61.61,0,0,1-.46.18,2.76,2.76,0,0,1-1.87-1.25,3.13,3.13,0,0,0-2.39-.9c-.59,0-1.6.1-1.75.75,0,.21,0,.61.61.92s1,.85.93.94h0A2.4,2.4,0,0,0,105,87.35ZM95.43,74.22a8.54,8.54,0,0,1-.78.9c-.54.57-.84.88-.72,1.28l.09.28.34.11h.19a2.34,2.34,0,0,0,1.13-.47,4.63,4.63,0,0,1,1.45-.68c.62-.14,1.28-.36,1.38-.91a1,1,0,0,0-.46-.94,1.47,1.47,0,0,1,.43-.06l.4,0a4.47,4.47,0,0,0,.75.08c1,0,1.52-.5,2.49-1.71a1.44,1.44,0,0,0,.41-1.53,1.11,1.11,0,0,0-1-.57,1.51,1.51,0,0,0-1.28.64,2.67,2.67,0,0,1-2.65.33l.23-.16c.44-.3,1.1-.75.83-1.44s-1-.57-1.28-.57a8.94,8.94,0,0,0-4.49,1.35,14,14,0,0,1-3.45,1c-1.71.33-2,.4-2.07.86l0,.37.38.19a3.82,3.82,0,0,0,1.55.33,5.14,5.14,0,0,0,2.83-1,.69.69,0,0,1,.33-.06,2.42,2.42,0,0,1,1.18.34l-.41,0a5.92,5.92,0,0,0-.67-.06.93.93,0,0,0-.79.33.9.9,0,0,0,.08,1.07l0,0a1.48,1.48,0,0,0-1,1,.64.64,0,0,1-.06.14.62.62,0,0,0-.67.62c0,.65,1.07,1.06,1.6,1.09h.38c1.56,0,1.93-.59,2-1.08A2.59,2.59,0,0,1,95.43,74.22ZM219.57,347.44a.84.84,0,0,1-.36-.06.17.17,0,0,1-.1-.19.66.66,0,0,1,.11-.24l-.79-.61a3.3,3.3,0,0,1-.44.41,1.94,1.94,0,0,1-1.14.52.68.68,0,0,1-.32-.07.42.42,0,0,1-.21-.58,3.47,3.47,0,0,1,2.41-1.75h.12a.3.3,0,0,1,.24.2,1.33,1.33,0,0,1-.37.91l.76.65a4.43,4.43,0,0,1,2-1.14,1.23,1.23,0,0,1,.27,0,.76.76,0,0,1,.73.39c.07.12,0,.28-.16.45A5.06,5.06,0,0,1,219.57,347.44ZM186.5,333.53a.18.18,0,0,1-.11,0,.34.34,0,0,1-.13-.34,1.69,1.69,0,0,1,.73-.93l-.25,1.11a.24.24,0,0,1-.12.18Zm3.41-3.85,0,.06-.52-.71-.16-.19c-.26-.29-.42-.49-.38-.64s0-.12.18-.17a.65.65,0,0,1,.19,0,1,1,0,0,1,.71.42,2.07,2.07,0,0,1,.15.25l.28.55h-.15L190,330Zm-5.82-135.45a5.52,5.52,0,0,1-3.23-1c-.06-.12,0-.17,0-.19s.16-.15.86-.15a6.91,6.91,0,0,1,3.05.7c.16.12.22.23.17.35s-.34.3-.75.32Zm10.41,0-.32-.17a3.86,3.86,0,0,0-1.8-.53,3,3,0,0,0-1,.17,3.08,3.08,0,0,1-1,.15,2.27,2.27,0,0,1-1.53-.48.27.27,0,0,1-.09-.3c.11-.27.55-.39,1.41-.39H191l.69,0a4.5,4.5,0,0,0,.56,0l.79-.09-.43-.67a7.17,7.17,0,0,0-.61-.74c-.42-.47-.82-.91-.78-1.27a.44.44,0,0,1,.21-.32,1,1,0,0,1,.54-.14,5.91,5.91,0,0,1,1.69.41c.34.11.66.22.95.3a3.39,3.39,0,0,0,.74.11,1.3,1.3,0,0,0,.36-.05,1.37,1.37,0,0,1,.47-.06,8.91,8.91,0,0,1,4.22,1.38c.3.22.66.55.66.91a.57.57,0,0,1-.16.42,1.56,1.56,0,0,1-1.09.25l-.72,0c-.27,0-.55,0-.83,0a4.38,4.38,0,0,0-1.39.18,6.25,6.25,0,0,0-1.44.69,1.47,1.47,0,0,1-.71.3Zm10.75-.12a1.66,1.66,0,0,1-1.47-.68c-.16-.26-.08-.42,0-.51a1.94,1.94,0,0,1,1.25-.3,3.88,3.88,0,0,1,1.84.4c.24.15.24.31.2.41a2.12,2.12,0,0,1-1.54.67Zm-19.56-4.39a14.87,14.87,0,0,1-3-.22.45.45,0,0,1-.28-.2c-.05-.12,0-.25.09-.42l.06-.14.17-.4-.38-.22a2.61,2.61,0,0,0-.64-.22,4.29,4.29,0,0,1-2-1.14,3.44,3.44,0,0,0-2.3-1.09c-2.13-.09-3.3-.37-3.39-.8a1.57,1.57,0,0,0-.91-1,1,1,0,0,0-.38-.07,1.18,1.18,0,0,0-.67.23l-.37.28c-.87.64-2,1.52-2.73,1.52a.44.44,0,0,1-.38-.19c-.07-.09,0-.24.07-.36a7.61,7.61,0,0,1,7.06-2.14,30.65,30.65,0,0,1,6.51,2.62,10.76,10.76,0,0,0,3.21,1.31,6.29,6.29,0,0,1,3.74,2,.21.21,0,0,1,0,.23A8.88,8.88,0,0,1,185.69,189.67Zm-3.26-8.07a1.12,1.12,0,0,1-.66-.86v-.15l-.08-.11a1.7,1.7,0,0,0-.18-.21,1.16,1.16,0,0,1-.42-.89c0-.58.16-.88.31-.92h0c.15,0,.29.12.41.34a1.67,1.67,0,0,1,.21,1.14,1.18,1.18,0,0,0,0,.37l0,.09.06.09.17.22c.3.36.42.59.3.83a.11.11,0,0,1-.1.07Zm24.74-45.94a.81.81,0,0,1-.56-.22c-.18-.16-.45-.39-.46-.52s.07-.34.71-1c1.09-1.09,1.41-1.2,2-1.2h.39c.1,0,2.32,0,2.32-.85a.55.55,0,0,0-.48-.53l-.3,0h-.29a4.17,4.17,0,0,1-1-.12,1.17,1.17,0,0,0,.18-.83,1.37,1.37,0,0,0-.13-.39l.23.12a2.59,2.59,0,0,1,.71.42c.15,1.12,3.07,1.14,3.1,1.14a2.74,2.74,0,0,0,1.17-.2.86.86,0,0,1,.37-.09,1.14,1.14,0,0,0,.29-.06s0,0,0,.06a1,1,0,0,0,.13.49l-.92.31a17.76,17.76,0,0,1-3.67,1h-.15a1.68,1.68,0,0,0-1.46.94,4.2,4.2,0,0,1-.71.83A2.45,2.45,0,0,1,207.17,135.66Zm8.63-4.92a3,3,0,0,0,0-.43l.2-.14a1.53,1.53,0,0,0,.82-1.09.68.68,0,0,1,.19-.21,1.12,1.12,0,0,0,.08,1,.69.69,0,0,0,.59.29l.26,0h.09a6.17,6.17,0,0,1-1.07.28A4.41,4.41,0,0,0,215.8,130.74Zm16-3.29a2,2,0,0,1-.83-.18.87.87,0,0,0-.06-.74,1.21,1.21,0,0,0-1.11-.55,1.84,1.84,0,0,0-.83.19l-.33.19a.6.6,0,0,0-.54-1l-.21,0h0c-.19,0-.27-.07-.45-.24a1.09,1.09,0,0,0-1.61-.14,2.42,2.42,0,0,1-1.51.45,8.85,8.85,0,0,1-1-.07,2.17,2.17,0,0,0-.36,0,7.61,7.61,0,0,0-1.18.12,6.5,6.5,0,0,1-.9.1,1,1,0,0,1-.47-.09c0-.12.24-.48.39-.67a1.69,1.69,0,0,0,.57-1.21.72.72,0,0,0-.31-.52,1.14,1.14,0,0,1,.74-.29h.16c1.33,0,1.33-1.69,1.33-2.4s2.26-3.78,2.95-4.06a1.45,1.45,0,0,1,.26-.07,2.27,2.27,0,0,0-.67,1.1,3,3,0,0,1-.61,1.08,2,2,0,0,0-.54,2.07.63.63,0,0,0,.58.41c.14,0,.49,0,.63-.59a.82.82,0,0,1,.41-.08h.06a.65.65,0,0,0,0,.14c0,.37.34.57.61.75s.36.24.39.34c.2.68,1.17,1,1.78,1a.9.9,0,0,0,1-.59,1.82,1.82,0,0,1,.51.09,2.61,2.61,0,0,0-.4,1.93.78.78,0,0,0,.75.66.91.91,0,0,0,.32-.06,1.43,1.43,0,0,0-.16,1.19.78.78,0,0,0,.71.57.7.7,0,0,0,.54-.25,2.32,2.32,0,0,1,.19.41,1,1,0,0,1,0,.68C232.39,127.36,232.12,127.45,231.77,127.45ZM214,121.94a12.87,12.87,0,0,1-3-1A13.23,13.23,0,0,1,214,121.94Zm-140.6-8.82a6.39,6.39,0,0,1-2.44-3c-.08-.34,0-.4.1-.44a1.72,1.72,0,0,1,.77-.24c.54,0,.6.77.6,1.11a4.7,4.7,0,0,0,.66,1.9C73.21,112.68,73.33,112.92,73.42,113.12ZM1.64,110.49l-.08-.2-.15-.35a2.25,2.25,0,0,1,.52-.54.4.4,0,0,1,.25-.1.19.19,0,0,1,.16.08.61.61,0,0,1,.16.54c-.08.3-.4.59-1,.86Zm4.54-2.27c-.14,0-.17-.07-.18-.1s.07-.21.16-.3a4.36,4.36,0,0,1,2.36-1,1,1,0,0,1,.33,0,1,1,0,0,1,.23.11l.12.08v.09c0,.29-.92.52-1.42.52A1.43,1.43,0,0,0,7,108a1.3,1.3,0,0,1-.67.25Zm21.06-7a.41.41,0,0,1-.28-.12,1.51,1.51,0,0,1-.32-1.53c.11-.23.32-.32.73-.32h.57l.2-.31A3.87,3.87,0,0,1,29,98c.28-.28.6-.6.93-1a2.15,2.15,0,0,1,1.31-.88l.12,0a.26.26,0,0,1,.14.26v.18l.1.14a2.49,2.49,0,0,0,.23.24c.16.14.23.21.22.29s-.06.1-.14.15a3.19,3.19,0,0,1-.68.22L30,97.9l.87.62c.51.37.38.58.28.74a6.88,6.88,0,0,1-2.63,1.87.52.52,0,0,1-.23,0l-.08-.12H28a.75.75,0,0,0-.46.18A.43.43,0,0,1,27.24,101.22ZM3.51,92.69c-1,0-2.08-.45-2.24-.92a.49.49,0,0,1,.17-.48,1.82,1.82,0,0,1,1.13-.45.9.9,0,0,1,.25,0A.33.33,0,0,1,3,91l0,0,.06.58,1.16-.11-.16-.41h.09a.38.38,0,0,1,.29.11.72.72,0,0,1,.25.71.92.92,0,0,1-.65.67A1.82,1.82,0,0,1,3.51,92.69Zm248-.91c-1.55-.25-3.32-.86-3.51-1.37s-1.39-1-2.1-1l-.28,0h-.13a1.08,1.08,0,0,1-.68-.31,1.21,1.21,0,0,0-.78-.35,1.35,1.35,0,0,0-.37.06,1.37,1.37,0,0,1-.4,0,2.32,2.32,0,0,1-1.86-1.54,5,5,0,0,0-1.36-1.5,6.32,6.32,0,0,1-.9-.88c-.07-.1-.15-.21-.24-.32a2.19,2.19,0,0,1-.71-2.11c.21-.61-.31-.84-.77-1.05s-.75-.36-.77-.68a1,1,0,0,0-.44-.69,1.37,1.37,0,0,1-.57-1.33v-.12l0-.56-.57,0H235a.5.5,0,0,1-.54-.44,4.64,4.64,0,0,1,0-1.55c.09-1.17.07-1.68-.33-1.9-1-.59-2.91-2.07-2.79-2.91.05-.43.58-.73,1-1l1-.6-.87-.39-.43-.18c-.79-.29-1.29-.54-1.17-1.35a3.25,3.25,0,0,1,.91-1.58,2.37,2.37,0,0,0,.76-1.39c0-1.08.77-1.32,1.6-1.43h.24a5.47,5.47,0,0,1,1,.12,5.4,5.4,0,0,0,.84.1h.45l.06-.45c0-.2,0-.45,0-.73a2.94,2.94,0,0,1,.38-1.94l.08-.08,0-.1A1.62,1.62,0,0,0,236.7,59a1.59,1.59,0,0,0-1.08-.57.86.86,0,0,0-.27,0,.83.83,0,0,1-.23,0,3.78,3.78,0,0,1-1.29-.31l-1.58-.58h.05l-1.57-1-.35-.24c-.36-.25-.44-.36-.44-.41s0-.06.09-.09a5.46,5.46,0,0,1,1.85-.22,6.44,6.44,0,0,1,3.41.73,3.34,3.34,0,0,0,.74.42l1.75.64L236.59,56a3.45,3.45,0,0,0-.47-.46,6.13,6.13,0,0,0-2.4-1.16,3.37,3.37,0,0,1-1.46-.69c-.32-.32-.26-.72-.14-1.17,0-.1,0-.18,0-.25l.1-.54-.54-.05h-.18a1.54,1.54,0,0,0-1.24.65A1.65,1.65,0,0,1,229,53a2.32,2.32,0,0,1-.44,0,1.18,1.18,0,0,1-.84-.41,1.45,1.45,0,0,1,0-1.11,1.43,1.43,0,0,0-.08-1.21c-.2-.26-.17-.5.56-1.12.43-.36.63-.56.69-.8l.13-.52-.37-.07c-.36-.31-1.39-1.24-1.06-2l.13-.3-.22-.24c-.09-.1-.25-.25-.37-.36-.43-.38-1-.85-.91-1.4a3.22,3.22,0,0,0-1.85-3.27c-2.1-.94-2.94-1.74-2.79-2.68.12-.77-.77-1.1-1.8-1.48a10.11,10.11,0,0,1-1.41-.6,16,16,0,0,0-3.6-1,10.67,10.67,0,0,1-2.88-.76.81.81,0,0,0-.45-.15,1.36,1.36,0,0,0-.72.3,1.75,1.75,0,0,1-.95.37,1.25,1.25,0,0,1-.32,0,2,2,0,0,0-.35,0,3.23,3.23,0,0,0-1.3.39,2.07,2.07,0,0,1-.77.26.29.29,0,0,1-.25-.13,2.51,2.51,0,0,0-1.44-.42h-.91l.41.77c.07.12.09.2.05.26s-.16.1-.47.1a9.16,9.16,0,0,1-2.94-.83,11.12,11.12,0,0,0-1.46-.59c-.79-.26-.94-.38-.91-.72a1.38,1.38,0,0,1,.36-.64l.54-.7-.71-.2-.25-.06c-.48-.09-1-.14-1.45-.18-1.24-.12-2.06-.23-2.18-.77a.22.22,0,0,1,0-.19c.19-.24.88-.28,2-.31a6.93,6.93,0,0,0,2.88-.45.88.88,0,0,1,.24-.11l-.19-1-.44,0a3.83,3.83,0,0,1-2.82-.9,3,3,0,0,0-2.34-.84,6.52,6.52,0,0,1-1-.11,1.43,1.43,0,0,1-1.18-1.48c0-1,2.39-1.45,4.49-1.88a9.09,9.09,0,0,0,3-.85l.15-.11,0-.18c.11-.52,1.54-.56,2.93-.59a7.56,7.56,0,0,0,3.37-.49c1-.68,2.08-2.13,2-3.06a.72.72,0,0,0-.38-.63,3.84,3.84,0,0,0-1.72-.24h-1.13c-1.1,0-1.87-.09-2.08-.54,0,0-.06-.13.05-.31.71-1.23,7.42-4.51,9-4.63h.2a6.24,6.24,0,0,1,2,.48,4.27,4.27,0,0,0,1.21.33h.1l.16,0,.13-.05.08-.12a2,2,0,0,0,.22-1.44,2.44,2.44,0,0,0-.83-1.58.23.23,0,0,1-.11-.18c0-.11.15-.22.4-.34a7,7,0,0,1,2.52-.44,3.14,3.14,0,0,1,1.71.37,2.53,2.53,0,0,0,.69.36l.46-.88c-.36-.26-.31-.43-.29-.48.12-.42,1.29-.73,2.73-.73H224a11,11,0,0,0,2.57-.5l.12,0a12.4,12.4,0,0,1,2.7-.52,1.81,1.81,0,0,1,.62.09,2.21,2.21,0,0,1,1.14,1.48,4,4,0,0,1,.15,2.06l-.35,1.59,1.18-1.12a1.73,1.73,0,0,0,.61-1.27,5.39,5.39,0,0,0-.25-1.45c-.14-.49-.21-.77-.08-.94s.41-.17.51-.17a5.28,5.28,0,0,1,2.34,1.28,8,8,0,0,0,1,.7l.19.09.2-.07a.78.78,0,0,1,.24,0,6.46,6.46,0,0,1,.91.11c.23,0,.55.1.81.12l1.76.17L239,7.6c-.23-.18-.58-.41-.82-.58-.69-.47-1.39-.93-1.39-1.31a.39.39,0,0,1,.2-.31A2,2,0,0,1,238,5.2a7.64,7.64,0,0,1,4.35,1.39,3.85,3.85,0,0,0,2.11.85,6.79,6.79,0,0,1,2.35.81,9.4,9.4,0,0,0,1.45.78l.49-.86A17.93,17.93,0,0,0,246.64,7a7.67,7.67,0,0,1-2.31-1.46c-.11-.13-.15-.24-.11-.34.13-.28.9-.34,2-.4.24,0,.52,0,.78,0l1.63-.13-1.43-.8-.59-.31c-.53-.27-1.07-.55-1-.72s.2-.14.31-.16a20.88,20.88,0,0,1,2.24-.14c2.93-.09,4-.23,4.37-.58.1-.12.23-.28.84-.28a13.38,13.38,0,0,1,1.82.21,14.54,14.54,0,0,0,2,.23,1.26,1.26,0,0,0,.85-.22,2,2,0,0,1,1.21-.31,3.2,3.2,0,0,1,1.5.34.64.64,0,0,1,.39.56l0,.47.49,0h.12a1.48,1.48,0,0,0,.49-.08,1,1,0,0,0,.55-.41l.35-.72h-.54l0,0a.35.35,0,0,1-.11-.4c.16-.32,1-.56,1.87-.56h.4A5.22,5.22,0,0,0,266,.55a9.49,9.49,0,0,1,1.31-.26c.52,0,1.8-.07,3.28-.09,1.79,0,3.81-.05,5.11-.15.44,0,.92,0,1.4,0a11.21,11.21,0,0,1,4.72.76,8.4,8.4,0,0,0,3.16.39c1.22,0,2.37.06,2.49.33l.05.12.11.08a4.31,4.31,0,0,0,1,.37c.9.29,1.37.52,1.31.85l0,.27.2.18a3.63,3.63,0,0,0,2.07.4h.61c1.27,0,3.39.61,3.68,1.19a.24.24,0,0,1,0,.29c-.26.32-1.08.49-2.39.74a16.31,16.31,0,0,0-3.2.81,11,11,0,0,1-3.31.5l0,1a2.86,2.86,0,0,1,1.22.27l0,0,0,.13c0,.16-.79.52-1.8,1l-.76.35.38.92c.8-.29,1.72-.67,2.36-.94A16.94,16.94,0,0,1,291,9.21a1.32,1.32,0,0,0,.84-.65,2,2,0,0,1,1.72-1h.27a1.65,1.65,0,0,1,1.59.84,1.88,1.88,0,0,1-.61,2.08c-.92.92-1.59,1.63-2.08,2.16l.68.73a6.06,6.06,0,0,1,1.46-.92A10.9,10.9,0,0,0,297.13,11a10.47,10.47,0,0,1,1.65-1.14,1,1,0,0,1,.42-.12.27.27,0,0,1,.13,0c.16.05.24.2.34.41l.13.23.29.43.42-.31h.05a1.36,1.36,0,0,1,.56-.11,7.1,7.1,0,0,1,1.48.26,6.5,6.5,0,0,0,1.33.24.83.83,0,0,0,.5-.13.65.65,0,0,0,.24-.5c.13-1.69,2.26-1.91,4.1-1.91s6.81,1.21,6.9,2-3.21,2-4.52,2.08a1.14,1.14,0,0,0-.95.42,2.26,2.26,0,0,1-1.67.71,5.63,5.63,0,0,0-1.66.42,5.45,5.45,0,0,1-.81.27v1c.72.16,1,.37,1,.47s0,.2-.2.3a8.28,8.28,0,0,1-3.12.64l-1.6.12,1.38.81a2.37,2.37,0,0,1,.64.57.61.61,0,0,1,.13.57c-.07.14-.25.21-.52.21s-2.49,0-3.18,1a1.14,1.14,0,0,0-.15,1.06c.23.8-.51,1.22-2.05,1.75-.93.32-1.28.48-1.45.73l-.11.16,0,.19a4.48,4.48,0,0,1-.92,3.4l.54.82a1.43,1.43,0,0,0,.76-.69c.14-.3.48-.46,1-.47h0a4.69,4.69,0,0,1,3,1.14.24.24,0,0,1,0,.22s-.12.17-.52.17a5.17,5.17,0,0,1-.76-.08,7.53,7.53,0,0,0-.83-.08,1,1,0,0,0-.42.08l-.77.39.66.44a1.35,1.35,0,0,0,.52.44,3.14,3.14,0,0,0,1.25.24,3.34,3.34,0,0,0,1.46-.29.44.44,0,0,1,.2-.05,1,1,0,0,1,.55.23c.46.34,1,1.11.92,1.6a.47.47,0,0,1-.42.36,2.25,2.25,0,0,1-.38,0,11.38,11.38,0,0,1-1.55-.19,11.48,11.48,0,0,0-2-.24,2.52,2.52,0,0,0-1.52.4,1.92,1.92,0,0,1-1.14.42,2,2,0,0,1-.41,0l-.35.92c.21.12.61.35.65.55l0,.21.18.11a8.89,8.89,0,0,0,3.35.62c.57,0,1.28.87,1.53,1.86a1.49,1.49,0,0,1-.58,1.83,2.44,2.44,0,0,1-1.15.27,6.27,6.27,0,0,1-.8-.07,5.1,5.1,0,0,0-.66-.06,1,1,0,0,0-.9.45.69.69,0,0,0,.13.85A5.19,5.19,0,0,0,300.67,41,1,1,0,0,0,301,41a.74.74,0,0,1,.23-.05.36.36,0,0,1,.24.1.67.67,0,0,1,0,.7,1,1,0,0,1-.95.62l-.47,0c-1-.06-1.75-.09-2.35-.09-.37,0-.67,0-.9,0l-1.57.13,1.36.8.71.39c.83.43,1.58.82,1.62,1.24,0,.06,0,.23-.24.43a3,3,0,0,1-2,.62,5.81,5.81,0,0,0-1.41.21,1,1,0,0,1-.35,0,5.73,5.73,0,0,1-2.25-.82,8.26,8.26,0,0,0-1.28-.59l-1.08-.31.49,1,.06.12c.14.27.2.42.13.55s-.6.31-.95.35-.8.16-1,.48l-.06.13v.13a.87.87,0,0,0,.45.6,1.3,1.3,0,0,0,.68.18,1.5,1.5,0,0,0,.76-.21,6.36,6.36,0,0,1,2.86-.6,3.64,3.64,0,0,1,1.7.31c.17.1.26.21.26.35a2.71,2.71,0,0,1-.78,2.06,1,1,0,0,1-.53.15,1.47,1.47,0,0,1-.59-.13,14.41,14.41,0,0,0-2.2-.79L290,48.7l1.29,1.23a19,19,0,0,0,2,1.51c1.39,1,2.81,1.91,2.91,2.48a.3.3,0,0,1,0,.23,1.38,1.38,0,0,0-.06,1.24c.17.7.21,1.18-.66,1.43a4,4,0,0,1-4.4-1.48,3.89,3.89,0,0,0-2.3-1.54l-.7-.07.16.68c.07.27.13.46.18.63.15.48.23.75.11,1s-.3.24-.66.3a1.4,1.4,0,0,0-.53.21l.41.9a2.65,2.65,0,0,1,.71-.09,7.71,7.71,0,0,1,2.36.54c.37.12.66.22.92.28a6.92,6.92,0,0,0,1.62.19,4.62,4.62,0,0,0,1.94-.36.84.84,0,0,1,.38-.13c.07.08,0,.45-1.15,1.13a17.67,17.67,0,0,1-2,1,17.55,17.55,0,0,0-3.68,2c-1.47,1.23-5.79,1.91-7.19,2a3.15,3.15,0,0,0-1.43.33,3.06,3.06,0,0,1-1.54.32c-.51,0-.85.09-1,.5-.06.11-.09.17-.16.19h-.05a1.72,1.72,0,0,1-.71-.21,3,3,0,0,0-1.25-.36.77.77,0,0,0-.52.17c-.21.17-.26.51-.14,1s-.16.67-.9,1a2.57,2.57,0,0,0-1.59,1.48c-.47,1.57-2.43,3.27-4.46,3.86a10.37,10.37,0,0,1-2.31.38c-.68,0-1.12.08-1.44.4a.56.56,0,0,1-.35.2.32.32,0,0,1-.13,0,.4.4,0,0,1-.11-.18l-.12-.38.23-.53.35-.86-.87.09-.14,0-.15.11-.23.21.23.84-.22.41a.75.75,0,0,1-.07.12,2,2,0,0,1-1.51.69c-.48,0-1.65.2-2,.63l-.24.32.27.3c.32.37.16.59.11.65a.59.59,0,0,1-.39.13h-.13l-1.41-.18,1,1a.85.85,0,0,1,.28.69.46.46,0,0,1-.43.43,1.38,1.38,0,0,0-.82.38l-.25.33.28.31a1.15,1.15,0,0,1,.25,1.07.41.41,0,0,1-.24.27l-.23.09-.08.23c0,.1-.06.26-.08.37-.1.53-.2.79-.5.88l-.31.08L256,82s0,.11-.06.19c-.15.45-.3.79-.89.79l-.23,0-.33,0a1,1,0,0,0-.94.42l-.25.52.54.18c.34.11.54,1.17.51,2,0,.55-.15.93-.33,1l-.17.08-.08.16a4.58,4.58,0,0,0-.26,1.25c-.1.73-.2,1.49-.53,1.68a1.87,1.87,0,0,0-.65.8c-.22.41-.43.75-.74.75ZM203.85,27.91a3.82,3.82,0,0,0-1.32.26,7.2,7.2,0,0,1-1.11.32l.09,1c.55,0,1.17.08,1.78.15a13.69,13.69,0,0,0,1.55.13,2,2,0,0,0,.47,0l.41-.11,0-.42a1.26,1.26,0,0,0-.54-.91A2.21,2.21,0,0,0,203.85,27.91ZM300.54,17a5.07,5.07,0,0,0-1.19.6l.47.88a8.75,8.75,0,0,0,.92-.46l.21-.12ZM178.1,86.14c-.08,0-.23-.22-.24-.54a.6.6,0,0,1,.62-.69h0c.2,0,.24,0,.24,0a.74.74,0,0,1-.06.38A1.76,1.76,0,0,1,178.1,86.14Zm27.11-.72A12.85,12.85,0,0,1,199.85,83,4.76,4.76,0,0,0,197,82a3.81,3.81,0,0,1-2-.55,1.41,1.41,0,0,1-.25-1.08c0-.57,0-1.52-1.22-1.67-.49-.06-.66-.33-.94-.83a2,2,0,0,0-1.33-1.21l-.18,0a9.59,9.59,0,0,0-2-.33c-1.1,0-1.38.59-1.45.94a1.3,1.3,0,0,1,0,.13l-.23,0a11.94,11.94,0,0,0-1.19-.14H186a10.71,10.71,0,0,0-1.6.16,9.49,9.49,0,0,1-1.3.14,1.21,1.21,0,0,1-1-.3.82.82,0,0,1-.11-.93,1.18,1.18,0,0,1,.9-.74,1.17,1.17,0,0,0,1-.56c.14-.17.18-.23.42-.23a3.81,3.81,0,0,1,1.07.23,6.58,6.58,0,0,0,2.12.34,4.08,4.08,0,0,0,3.07-1,1,1,0,0,0,.18-.89,3.79,3.79,0,0,0-.39-.78c-.25-.43-.53-.92-.41-1.26s.45-.52,1-.74a3.36,3.36,0,0,1,1.23-.22,4.11,4.11,0,0,1,3.2,1.47.6.6,0,0,0,0,.54.75.75,0,0,0,.69.32c.76,0,2.91-.69,3.26-1.59a.83.83,0,0,0-.24-.92c-.13-.11-.26-.24-.4-.38a3.92,3.92,0,0,0-2.44-1.42,1.74,1.74,0,0,0-.85.22,5.28,5.28,0,0,1-2.18.53,2.55,2.55,0,0,1-.36,0c0-.09.07-.21.11-.31a3.34,3.34,0,0,0-.22-3.25c-.83-1.16-1.73-2.3-2.87-2.3a1.82,1.82,0,0,0-.68.13c-.07-.12-.17-.35-.25-.52-.26-.61-.61-1.44-1.46-1.44a2.53,2.53,0,0,0-.88.22.81.81,0,0,0,.16-.59c-.08-.64-.91-1-1.88-1.48a5.6,5.6,0,0,1-1.18-.66,1,1,0,0,0-.78-.78c-.22-.08-.25-.11-.28-.21-.27-.78-1.13-1.14-1.9-1.46a5.12,5.12,0,0,1-.74-.33,1.22,1.22,0,0,0-.59-.16.94.94,0,0,0-.92.79,1.1,1.1,0,0,0,.62,1.25,1,1,0,0,1,.39.29,11.54,11.54,0,0,1-2-.36,11.91,11.91,0,0,0-2.13-.37.86.86,0,0,0-.77.34,2,2,0,0,1-1.44.66h-.13c-.26,0-.69-.13-1.2-.25a20,20,0,0,0-3.29-.56c-.43,0-.86,0-1.28,0-1,0-2,0-2.36-.41s-.67-.87-1.29-.87a5.61,5.61,0,0,0-1.28.25,1.72,1.72,0,0,1-.34,0,4.4,4.4,0,0,1-2.93-1.48,3.14,3.14,0,0,1,.44,0,12.41,12.41,0,0,1,1.77.19l.22,0,.47,0c.78,0,1.3-.3,1.37-.78s-.32-.87-1.18-1.12a10.83,10.83,0,0,0-2.32-.29,5.87,5.87,0,0,1-1.66-.23,6.3,6.3,0,0,1,1.77-6.39,9.79,9.79,0,0,1,6.14-2.23,4.58,4.58,0,0,1,.79.06l-.2.11a5.71,5.71,0,0,0-1.55,1.17c-.75.81-2.14,2.31-1.08,3.53.19.21.19.47.16.93a3.1,3.1,0,0,0,.21,1.53,5,5,0,0,0,3.39,2.05.93.93,0,0,0,.73-.28.86.86,0,0,0,.22-.68c-.08-1-.87-1.28-1.44-1.45a2.35,2.35,0,0,1-.82-.36,3.88,3.88,0,0,1,.49-.4c.4-.29.77-.56.78-1a.68.68,0,0,0-.26-.55c-.77-.64-.95-1.13-1-1.42A1.06,1.06,0,0,1,167,47a4.59,4.59,0,0,1,2.34-.93,3.44,3.44,0,0,0,2-.78,3,3,0,0,1,1.95-.65c.35,0,1,.07,1.14.5a6.33,6.33,0,0,0,1,1.67,4,4,0,0,1,.47.76,4.48,4.48,0,0,1-.17,1.51c-.19.89-.33,1.53,0,1.92a.7.7,0,0,0,.55.25,3.86,3.86,0,0,0,1.58-.68,7.76,7.76,0,0,1,1.26-.63,1.6,1.6,0,0,0,1.4,1.2.81.81,0,0,0,.64-.29,1,1,0,0,0,.16-.82.44.44,0,0,1,.14-.38,2.36,2.36,0,0,1,1.6-.72c1,0,3.3.32,3.76.91,0,.07,0,.1,0,.16a1.1,1.1,0,0,0,.12.91,2.26,2.26,0,0,0,1.69.66,5.09,5.09,0,0,1,.68.11,3.41,3.41,0,0,0,.82,1.52,2.58,2.58,0,0,0,1.61,1,.91.91,0,0,0,.84-.56c.11-.24.58-.42,1.12-.42a1.28,1.28,0,0,1,1,.29.36.36,0,0,1-.06.31,1.74,1.74,0,0,1-1.21.63.8.8,0,0,0-.82.81,1.13,1.13,0,0,0,1.15,1,1.24,1.24,0,0,0,.73-.25,4.56,4.56,0,0,1,1.8-.74,1.67,1.67,0,0,0,.27.84,1.28,1.28,0,0,0,1.08.55,2.44,2.44,0,0,0,.72-.13,1.59,1.59,0,0,1,.56-.07,4.15,4.15,0,0,1,1.88.45c-.84,1.24-.61,1.68-.53,1.83a.75.75,0,0,0,.7.4,1.42,1.42,0,0,0,1-.59,1,1,0,0,1,.2-.21,2.47,2.47,0,0,1,.92,1c-.1,0-.26.08-.44.13a1,1,0,0,0-.87,1.14.85.85,0,0,0,.68.72h0a1,1,0,0,0-1.12.93,1.85,1.85,0,0,0,.43,1.47,4.1,4.1,0,0,0,2.7,1.33,4.82,4.82,0,0,1,1.52.62,4.36,4.36,0,0,0,1.84.67,1.23,1.23,0,0,0,.39-.06h.1a5.27,5.27,0,0,1,2.83,1.48,2,2,0,0,0,.37,1.2,1.87,1.87,0,0,0,1.63.75l.36,0a3.52,3.52,0,0,1,1.8.54c-1.23.57-2.86,1.78-2.74,3l-.45,0c-.51,0-1.36.12-1.59.94l0,.12a2.07,2.07,0,0,1-.29.76c-.08,0-.35,0-1-.59a8.88,8.88,0,0,1-1.5-1.67c-.48-.66-.91-1.24-1.73-1.3a2.31,2.31,0,0,1-.94-.57,2.4,2.4,0,0,0-1.4-.7,1.22,1.22,0,0,0-.92.45,1.58,1.58,0,0,0-.28,1.75,1.08,1.08,0,0,1,.07.27h0a1.32,1.32,0,0,1-.17.09.88.88,0,0,0-.51,1c.26,1.19,2.86,3,4,3,.94,0,1.55,1.37,1.55,2.27s.64,1.11,1.07,1.33a1.4,1.4,0,0,1,.38.23,1.52,1.52,0,0,1-.27.45,2,2,0,0,1-1.69.76,5.27,5.27,0,0,1-3.05-1.2,5,5,0,0,0-3-1c-.28,0-1.11,0-1.18.6,0,.35.19.61.72.75,1.2.32,4.73,3.59,5,4.54Zm-34.17-1a.8.8,0,0,1-.43-.12c-.09-.06-.13-.1-.13-.11,0-.37,1.68-1.23,2.68-1.34-.29.53-1.27,1.57-2.12,1.57Zm-4.31-3.22a.49.49,0,0,1-.2-.05,2.07,2.07,0,0,1,0-.32,1.19,1.19,0,0,0-.2-1,.94.94,0,0,0-.73-.28,4.83,4.83,0,0,0-1.35.26,2.86,2.86,0,0,1-.67.16,4.54,4.54,0,0,0,.49-.33c.58-.41,1.56-1.1,1.2-2.32-.18-.62-.1-.76.08-1a3,3,0,0,0,.48-1.55,1.49,1.49,0,0,1,1.23-1.36c0,1.12,1.1,1.58,2,2a8,8,0,0,1,.78.35,11,11,0,0,0,1.25.54c.7.27,2.33.9,2.42,1.27-.17.87.84,1.31,1.72,1.7a3.62,3.62,0,0,1,1.05.58h0a3.52,3.52,0,0,1-1,.15,4.21,4.21,0,0,1-2.29-.63,3.06,3.06,0,0,0-1.74-.65,1.78,1.78,0,0,0-1.56.89,4.89,4.89,0,0,1-2.85,1.64Zm17.72-13.41a1,1,0,0,1-1-.53,1.21,1.21,0,0,1,0-1.26,2.19,2.19,0,0,1,1.41-1.11l.58,0a2,2,0,0,1,1.56.45,2.05,2.05,0,0,1,.33,1.66.31.31,0,0,1-.28.23,9,9,0,0,0-.91.24A6.24,6.24,0,0,1,184.45,67.74Zm-20.41-2s0-.21.07-.39c0,0,0,.06,0,.09a2.42,2.42,0,0,0,0,.33Zm-43.59-1.17s0-.09,0-.15c.17-.37.75-.48,1.36-.61a4.35,4.35,0,0,0,1.4-.46,4.25,4.25,0,0,1,1.93-.42,2.15,2.15,0,0,1,.63.07,2.11,2.11,0,0,1,0,.25s0,0,0,.08h0a.85.85,0,0,0-.63-.27,2,2,0,0,0-1,.42,2.4,2.4,0,0,1-1.16.47h-.14l-.41,0a1.73,1.73,0,0,0-1.26.5c-.16.13-.2.15-.28.15h-.49Zm23.86-1.07-.71-.1a4.79,4.79,0,0,0-.7-.08l-.19,0A2.45,2.45,0,0,0,140.58,62a3.94,3.94,0,0,1-1.29-.24,1.18,1.18,0,0,1,.26,0,1.63,1.63,0,0,0,1.77-1.56c.09-.53.28-.8.54-.8a1.49,1.49,0,0,1,.92.52,2.21,2.21,0,0,0,1.68.79h0a.92.92,0,0,0-.08.38.88.88,0,0,0,1,.89,4,4,0,0,0,1.28-.29,1.1,1.1,0,0,1,.65.62c.07.18,0,.24,0,.28a.78.78,0,0,1-.57.22,2.67,2.67,0,0,1-.55-.07,4.52,4.52,0,0,0-.87-.1.8.8,0,0,0-.91.81Zm-30.13-.23c-1.62,0-3.19-.16-3.69-.71a.88.88,0,0,1-.2-.72,1.14,1.14,0,0,0-.27-.88,1.32,1.32,0,0,0-1-.35c-.23,0-.49,0-.78,0s-.68.06-1.07.06a4.1,4.1,0,0,1-1.78-.35l-.82-.37c-1.35-.61-1.53-.71-1.63-1a13.19,13.19,0,0,1,5-.88h.38l.55,0c.82,0,1.7.07,2.46.07,1.41,0,2.68-.07,2.68-.95,0-1.49-5.62-1.61-5.68-1.61a10.16,10.16,0,0,0-1.77.14,9.81,9.81,0,0,1-1.67.14c-2.17,0-3.44-.58-3.61-.84a10.72,10.72,0,0,1,2.84-.82c1.8-.38,2.37-.52,2.48-1a.63.63,0,0,0-.29-.65,1.65,1.65,0,0,0-1-.25,11.1,11.1,0,0,0-2.56.5,12.52,12.52,0,0,1-1.27.3.91.91,0,0,0-.21-.72,1,1,0,0,0-.8-.28,1.09,1.09,0,0,1-.92-.4c0-.11.11-.28.26-.41.81-.67,1.14-1.22,1-1.71a1,1,0,0,0-.09-.21,12.27,12.27,0,0,1,3.19-1.56c.75-.26,1.42-.54,2-.79a7.61,7.61,0,0,1,2.16-.71c.21,0,.26.06.31.14l.08.13c.23.36.61,1,.53,1.14,0,0-.09.17-.65.29s-1,.43-.95.85c.1.88,1.94.91,2,.91a1.43,1.43,0,0,0,.93-.26,1.28,1.28,0,0,0,.37-1.08c0-.47,0-.61.7-.68l.41,0a3,3,0,0,1,2.18.75.25.25,0,0,1,.08.18l0,.16c-.12.51-.2.88,0,1.16l.15.19.32,0c.25,0,.52-.14,1-.51a.49.49,0,0,1,.32-.12,1.87,1.87,0,0,1,.63.19,1.88,1.88,0,0,0,.72.19.82.82,0,0,0,.81-.69,1.1,1.1,0,0,0-.56-1.29,4.71,4.71,0,0,1,1.91,1.18,6.22,6.22,0,0,1,.6,1.72c.27,1.06.51,2,1.25,2h.06l.13,0,.36-.07c.52-.1,1.11-.22,1.34-.72a1.11,1.11,0,0,0-.14-1c-.77-1.28-1.71-3.86-1.36-4.36,0-.07.08-.1.11-.1a1.43,1.43,0,0,1,.42.15,2,2,0,0,0,.87.26,1.13,1.13,0,0,0,.59-.18,5,5,0,0,1,1.35.72c.53.35.8.52,1.08.52a.58.58,0,0,0,.36-.12,4,4,0,0,0-.09,1.12,4.48,4.48,0,0,0,1.46,3.17c.28.23.26.28.11.66a1.62,1.62,0,0,0,.7,2.21,6.59,6.59,0,0,0,2.2,1.14,3.5,3.5,0,0,1,1,.48,10.6,10.6,0,0,0,1.27.65c.94.43,2.12,1,2.08,1.57H135a3.14,3.14,0,0,1-.78-.22,3.61,3.61,0,0,0-1.17-.3.91.91,0,0,0-.73.31,3.22,3.22,0,0,1-1,.56c-.57.25-1.35.6-1.08,1.29a1.36,1.36,0,0,0,1.2.88,1.51,1.51,0,0,0,1.18-.67s0,0,.09,0a1.11,1.11,0,0,1,.84.74c0,.08,0,.2-.21.33a8.53,8.53,0,0,1-3.3.6,3.83,3.83,0,0,1-2.45-.6,3,3,0,0,0-1.53-.53,3.43,3.43,0,0,1-1-.25,1.28,1.28,0,0,0-1.15-.93,1.51,1.51,0,0,0-1.21.81,2,2,0,0,1-2,1l-.47,0h-.16a5.59,5.59,0,0,0-2,.54,9.29,9.29,0,0,1-3.62.8Zm118.11-1.87a1.83,1.83,0,0,1-1.22-.36,2.8,2.8,0,0,0-1.13-.65,2.26,2.26,0,0,1-1.07-.66c-.48-.52-.34-.9.08-1.41a1.26,1.26,0,0,0,.19-.26c.06-.16.21-.45.92-.51h.23l1.89.08,1.08,1.36a1.55,1.55,0,0,0,.87.54c.4.14.59.25.57.68s-.39.68-1,.93A4.06,4.06,0,0,1,232.29,61.35ZM91,54.39c-.19,0-.48-.63-.68-1-.43-.86-1-1.92-2-2.17-.34-.07-.7-.13-1-.18a5,5,0,0,1-1.43-.35s.07-.13.25-.34l.21-.24c1.21-1.38,1.89-2.19,1.84-2.89a.87.87,0,0,0-.16-.45,6.4,6.4,0,0,1,.57-.73c.56-.66,1.08-1.28,1-1.88a.83.83,0,0,0-.34-.6,6.07,6.07,0,0,1-1-1,23.57,23.57,0,0,0,2.65-.49,21.19,21.19,0,0,1,3.14-.57H94a7.34,7.34,0,0,0,3.73,1.34,2.33,2.33,0,0,0,.62-.08c.11.53.43.64.69.64a1.51,1.51,0,0,0,.78-.29,2.23,2.23,0,0,1,1.26-.4,4.6,4.6,0,0,1,2.31.85l.89.53a9.56,9.56,0,0,1,1.46.94,35.47,35.47,0,0,1-6.13,2.52,1.63,1.63,0,0,0-1.36,1.52c-.07.4-.1.41-.25.44-1,.26-2.25.78-2.25,2.45,0,.51-.14,1-1.16,1h-.5a1.66,1.66,0,0,0-1,.33,1,1,0,0,1-.72.21,1.26,1.26,0,0,0-1.34.83A.14.14,0,0,1,91,54.39Zm48.7-1.2a1.35,1.35,0,0,1-.69-.32,6.26,6.26,0,0,1-1.53-1.51,4.65,4.65,0,0,0-2.71-1.94c-1.36-.4-2-1.22-2-1.66,0-.16.16-.26.44-.31h.13a1.92,1.92,0,0,1,1.07.57,2.48,2.48,0,0,0,1.47.7,2.15,2.15,0,0,0,1.66-1.1c.41-.56.79-1.2.53-1.73s-.95-.54-1.6-.55a2.37,2.37,0,0,1-1.24-.19c-.07,0-.08-.08-.08-.08a2.82,2.82,0,0,1,2.2-.91,1.3,1.3,0,0,1,.75.18,2.63,2.63,0,0,0,1.47.52c.56,0,1-.26,1-.66a.82.82,0,0,0-.42-.85,5.85,5.85,0,0,1,1.36-.26.86.86,0,0,0,0,.33c.13.44.58.62,1,.8a1.82,1.82,0,0,1,.58.31,2.89,2.89,0,0,1-1.43.95c-.63.27-1.18.51-1.32,1a.87.87,0,0,0,.16.76,1.67,1.67,0,0,0,1.47.61h.5c.41,0,.42,0,.44.17.12.79.47,1,.75,1a.61.61,0,0,0,.5-.26c-.3,1.68-.71,3.11-1.84,3.11h-.2a2.48,2.48,0,0,0-2.06,1c-.21.25-.31.35-.41.35Zm39.24-5.35a1.06,1.06,0,0,1-1.19-.92,2.27,2.27,0,0,0-1-1.61c-.43-.36-.44-.4-.33-.64,0-.07.07-.14.29-.14a5,5,0,0,1,1.21.28,6,6,0,0,0,1.73.36,3,3,0,0,0,.43,0,.68.68,0,0,1,.21,0,7.38,7.38,0,0,1,4.24,2,3.15,3.15,0,0,1-.82.07l-.74,0-.86,0a4.06,4.06,0,0,0-2.13.42A2.06,2.06,0,0,1,178.9,47.84Zm-34.53-.23a2.42,2.42,0,0,0-.25-.71h.07a.33.33,0,0,1,.24.09.31.31,0,0,1,0,.28C144.42,47.37,144.39,47.49,144.37,47.61Zm-17.85-.31c-.07-.5-.67-1-1.85-1.79l-.43-.3a4.87,4.87,0,0,1,2.13-.52,2.42,2.42,0,0,1,.9.15c.22.08.49.22.53.43s0,.6-1,1.6A1.69,1.69,0,0,0,126.52,47.3Zm-15.63-5.85a2.93,2.93,0,0,1-.63-.06,2,2,0,0,1-1.24-.61h0a3.08,3.08,0,0,1,1.26-.28c1.48-.11,4.35-.88,4.31-1.91,0-.46-.42-.7-1.22-.7h-.21a16.34,16.34,0,0,0-2.27.28,9.29,9.29,0,0,1-1.08.15v0a1.19,1.19,0,0,0,0-1.06.63.63,0,0,0-.51-.25c-.17,0-.63,0-1.94,1.44a1.18,1.18,0,0,1-.91.5,4.07,4.07,0,0,1-1.3-.37,7.72,7.72,0,0,0-1.55-.38c.33-.08.7-.15,1-.2a12.72,12.72,0,0,0,1.53-.35c.22-.07.75-.25.67-.74s-.67-.5-.92-.5a9.33,9.33,0,0,0-1.74.2,2.4,2.4,0,0,1,1.15-.27h.64c.56,0,1.4,0,1.4-.64,0-.34-.2-.73-1.72-.73-.44,0-.62-.15-.64-.2a.6.6,0,0,1,.41-.14,1.69,1.69,0,0,0,1.39-.87c.19-.27.26-.38.58-.38a.76.76,0,0,1,.75.47,1.29,1.29,0,0,0,1.14.75,1.89,1.89,0,0,0,.51-.07,1.45,1.45,0,0,1,.32,0c1.38,0,3.66,1.32,3.79,1.79.28,1.37,4,1.43,4,1.43,1.08,0,1.38-.24,1.52-.45a.66.66,0,0,0,.1-.56c-.11-.43-.61-.69-1.18-1l-.16-.08a1.21,1.21,0,0,0,.59-1.1c-.08-.49-.52-.79-1.31-.9a4.62,4.62,0,0,1,2.07-1.25h.16a1.77,1.77,0,0,1,.18.54,2.67,2.67,0,0,0,.66,1.46,8.07,8.07,0,0,1,.59.7c.51.66,1,1.34,1.89,1.34a1.33,1.33,0,0,0,.28,0,2.11,2.11,0,0,0,1.11-.64c.22-.22.31-.29.45-.29a.93.93,0,0,1,.38.1c.33.14.53.78.46,1.48s-.43,1.53-1.08,1.67a4.26,4.26,0,0,1-.92.08,11.37,11.37,0,0,1-1.19-.07c-.39,0-.75-.06-1.09-.06a2.62,2.62,0,0,0-1.54.4.46.46,0,0,1-.29.1A1.89,1.89,0,0,1,119,39a2.64,2.64,0,0,0-.92-.21,1.57,1.57,0,0,0-1.11.49A12.12,12.12,0,0,1,110.89,41.45ZM167,40.84c-3.44-.07-5.91-.18-6.23-1a.81.81,0,0,0-.75-.58c-.38,0-.67.28-1.09.67l-.38.36a1.08,1.08,0,0,1-.74.24,3.58,3.58,0,0,1-1.94-.72,1.77,1.77,0,0,0-1.07-.34h-.51c-.14,0-.32,0-.56-.69a1.91,1.91,0,0,1,0-1.55,1.55,1.55,0,0,0-.21-1.72l-.36-.45c-.92-1.17-1.63-2-2.35-2a.89.89,0,0,0-.77.45h-.29c-1.51,0-4.84-1.36-5.21-1.89a3.8,3.8,0,0,1,2-.35,6.81,6.81,0,0,1,2.44.38c.37.16.7.34,1,.5a5.68,5.68,0,0,0,2.71.87,4.17,4.17,0,0,0,.85-.09,2.65,2.65,0,0,1,.53,0A10.35,10.35,0,0,1,158.19,34l-.28.2c-.7.51-1.36,1-1.18,1.61s.83.63,1.47.66a2.33,2.33,0,0,1,1.75.68,1.4,1.4,0,0,0,1,.48,1.79,1.79,0,0,0,.81-.24,1.72,1.72,0,0,1,.8-.15,10.57,10.57,0,0,1,1.38.14,12.22,12.22,0,0,0,1.72.16,3.5,3.5,0,0,0,1.82-.43c.16-.09.84-.38,3.25-.38,3.37,0,6.71.54,7.33.92,0,.84-.51,2.37-1.39,2.55a9.31,9.31,0,0,1-1.84.16,7.21,7.21,0,0,1-3.16-.55,1.47,1.47,0,0,0-.7-.22,1.06,1.06,0,0,0-.78.4c-.31.31-.82.83-2.93.83Zm-17.1-.53a16.16,16.16,0,0,1-5.32-1.21,5.37,5.37,0,0,1,3.35-1.55,1.53,1.53,0,0,1,.93.26c1.18.89,1.75,2,1.63,2.34,0,.11-.22.15-.38.15Zm-11.77-1.23a1.26,1.26,0,0,1-1-.28c-.12-.16.18-.6.4-.91s.57-.83.41-1.26a.85.85,0,0,0-.63-.5,1.93,1.93,0,0,0-.51-.06,8.12,8.12,0,0,0-1.44.2,9.32,9.32,0,0,1-1.7.22,2.11,2.11,0,0,1-1-.22c-.32-.19-.62-.34-.89-.48a5.69,5.69,0,0,1-2.17-1.62,2.34,2.34,0,0,1-.63-1.6c0-.06.18-.1.38-.1,1.11.06,1.59.71,2.35,1.87.21.32.43.64.67,1a2,2,0,0,0,1.52,1,.9.9,0,0,0,.88-.58,1.06,1.06,0,0,0-.44-1.17,1.16,1.16,0,0,1-.39-.93s.17.08.51.31a7,7,0,0,0,2.86,1.29.6.6,0,0,0,.61-.38c.17-.46-.29-.86-.54-1.08a5.23,5.23,0,0,1-1.21-1.49l.08,0,.91.37a8,8,0,0,0,2.55.81.9.9,0,0,0,.86-.45,3.87,3.87,0,0,1,1.3,1.36,1.27,1.27,0,0,1,.17,1.07,1.5,1.5,0,0,0,.25,1.92,1.88,1.88,0,0,0-.64,1c-.11.33-.14.41-.7.45-.41,0-.85.08-1.29.14A10.56,10.56,0,0,1,138.09,39.08Zm-8.91-.39a.7.7,0,0,1-.57-.24s-.1-.14,0-.39.15-.18.22-.18a1.09,1.09,0,0,1,.67.36.56.56,0,0,1,.15.28.7.7,0,0,1-.48.17ZM99.89,36.44a10.12,10.12,0,0,1,1.28-.85l0,0A3,3,0,0,1,99.89,36.44Zm-3.29-.86c-.27,0-.4-.29-.58-.85-.12-.36-.26-.82-.74-.82a.62.62,0,0,0-.46.21,2.86,2.86,0,0,0-.37.46c-.23.34-.33.44-.5.44a.74.74,0,0,1-.23,0,1.87,1.87,0,0,0-.6-.12,2.07,2.07,0,0,0-.88.25,1.3,1.3,0,0,0-.28-.76,3.93,3.93,0,0,1,2-.72h.27a2.28,2.28,0,0,0,1.8-1,3.82,3.82,0,0,1,1.15-.94,11.82,11.82,0,0,0,1.53-1,3.84,3.84,0,0,1,1.59-.88.35.35,0,0,1,.14,0,8.88,8.88,0,0,0,2.37.54c.93,0,1-.62,1-.74a1,1,0,0,1,.19-.6,2.77,2.77,0,0,1,.23.17,2.62,2.62,0,0,0,.84.49,1,1,0,0,0-.71.57.87.87,0,0,0,.14.79.41.41,0,0,1,0,.48,1.68,1.68,0,0,0-.13.66,2.33,2.33,0,0,1-.35.06c-.45.06-1.14.15-1.24.77,0,.15-.37.55-.64.55-.1,0-.2-.09-.3-.26a1.49,1.49,0,0,1-.07-.8,1.19,1.19,0,0,0-.19-1,.8.8,0,0,0-.62-.25l-.27,0a2,2,0,0,0-1.47,1.88c0,.13,0,.25-.08.35s-.2.68-.32.74-.08,0-.25-.12A1.07,1.07,0,0,0,98,34c-.59,0-.83.58-1,1C96.89,35.2,96.73,35.58,96.6,35.58Zm80.23-1.72a1.3,1.3,0,0,1-.89-.3c-.89-.78-1.44-1.1-3.37-1.1-.43,0-.86,0-1.27-.05l-1.12,0a2.45,2.45,0,0,0-2.13.74c-.09.14-.42.27-1,.27a3.19,3.19,0,0,1-1.86-.54,2.48,2.48,0,0,0-1.69-.38c-.4,0-.84,0-1.29,0s-1,.05-1.47.05a3.51,3.51,0,0,1-2.14-.42c.1-.44,2.33-1.18,3.77-1.18,1.19,0,1.65-.52,1.68-1s-.43-1.1-1.53-1.24c-.56-.07-.84-.39-.84-.55s.27-.35,1.08-.41a4.18,4.18,0,0,1,.49,0c1.38,0,2.21.48,2.47,1.43a2.23,2.23,0,0,0,2.2,1.29c.88,0,1.46-.45,1.46-1.15s-.82-1.26-1.6-1.73A4.86,4.86,0,0,1,167,27c1.75-1.6,1.63-1.92,1.54-2.17l-.13-.32-.41,0a2.5,2.5,0,0,0-1.16.49,6.32,6.32,0,0,1-3,.85,1.53,1.53,0,0,1-1-.26.25.25,0,0,1-.07-.22c.05-.88,2.19-1.91,3.94-1.91a3.32,3.32,0,0,1,.64.05,20.66,20.66,0,0,1,2.38.67,11.32,11.32,0,0,0,2.73.67c.68,0,.92-.41.92-.76,0-.76-.77-1-1.51-1.18a3.92,3.92,0,0,1-2.49-1.5c-1.16-1.82-2.45-2.64-4.17-2.64-.28,0-.64-.58-.66-1.26,0-.34.06-.92.6-.95.32,0,.7,0,1.11,0,2.36,0,4,.45,4.83,1.3a6.31,6.31,0,0,0,3.79,1.74c.56,0,.75-.29.8-.46.17-.5-.34-.89-.54-1-.42-.32-.91-.63-1.37-.93a12.35,12.35,0,0,1-1.26-.87,13.31,13.31,0,0,1,2-.3,10.69,10.69,0,0,0,4.69-1.19,1.85,1.85,0,0,0,.93-2.1,1.12,1.12,0,0,0-1-.86.78.78,0,0,0-.75.81c-.26.56-3.83,1.63-5.52,1.63a1.14,1.14,0,0,1-.28,0l-.38-.1a4.44,4.44,0,0,0-1.15-.22,1.17,1.17,0,0,0-1.18.85,3.24,3.24,0,0,1-1.32.16,10.26,10.26,0,0,1-3.41-.52l0-.18c.11-.55.19-1-.07-1.34a.63.63,0,0,0-.49-.22,1.5,1.5,0,0,0-1,.53,3.54,3.54,0,0,1-2.15.53,3.64,3.64,0,0,1-2.11-.45c-.07-.76-.87-.91-1.35-1a1.66,1.66,0,0,1-.52-.14c0-.17.5-.5.66-.6s.62-.42.5-.83-.58-.41-.75-.41l-.62,0c.52-.34.54-.71.49-.91a.7.7,0,0,0-.14-.27.85.85,0,0,1,.42.12.81.81,0,0,0,.63.33c.43,0,.69-.34,1-.73a6.16,6.16,0,0,1,.7-.8,1.25,1.25,0,0,1,.77-.21,3,3,0,0,1,1.54.43.62.62,0,0,0,.36.43,1.1,1.1,0,0,0,.43.08c.5,0,1.53-.28,1.76-1a.87.87,0,0,0-.09-.71l.37,0c.8-.09,1.43-.17,1.58-.68a.67.67,0,0,0,0-.37,5.1,5.1,0,0,1,2.54.72,2.32,2.32,0,0,0,1.49.57,1.66,1.66,0,0,0,1.73-1.46,2.34,2.34,0,0,1,.53,0c.26,0,.56,0,.84,0s.57,0,.81,0a1.15,1.15,0,0,0,1.06-.39.67.67,0,0,0,0-.7c-.09-.17-.08-.26-.07-.26s.11-.08.31-.08a1.64,1.64,0,0,1,.42.06,2,2,0,0,0,.63.1c.67,0,1.2-.31,1.29-.75a.66.66,0,0,0,0-.2h.36a6,6,0,0,1,2.38.49,2.89,2.89,0,0,0,1.14.29,1.44,1.44,0,0,0,1.12-.56.8.8,0,0,1,.7-.34,1.57,1.57,0,0,1,.29,0,5.24,5.24,0,0,0,.79,0,13,13,0,0,0,1.67-.14,10.22,10.22,0,0,1,1.28-.11,1.48,1.48,0,0,1,1,.27,3.12,3.12,0,0,0,1.64.79.75.75,0,0,0,.66-.33.91.91,0,0,0,0-.89,2.48,2.48,0,0,1,1.56-.49,1.54,1.54,0,0,1,1.08.35,1.46,1.46,0,0,0,1.06.45A3.13,3.13,0,0,0,196.82,3a2.36,2.36,0,0,1,.94-.33.48.48,0,0,1,.3.09c.74.51,2.82.61,5.46.68h.38c-.5.37-.92.82-.85,1.21a.6.6,0,0,0,.64.49,3,3,0,0,0,1.07-.28A11.75,11.75,0,0,1,208.38,4a1.09,1.09,0,0,1,.31,0c.1.22.35.43.92.43l.53,0,.53,0a1.52,1.52,0,0,1,.28,0,1.32,1.32,0,0,0,.36,1,3.43,3.43,0,0,0,2.47.84,5.14,5.14,0,0,0,.88-.08,4.2,4.2,0,0,1,.69-.06h.25a7.65,7.65,0,0,1-1.78,1.07C211.2,8.46,209.65,9,208.62,9a2.43,2.43,0,0,1-.61-.07,2.74,2.74,0,0,0-.63-.06s-4.61.28-4.83,1.4A.62.62,0,0,0,203,11a2.34,2.34,0,0,0,.81.11c.49,0,1.13-.06,1.8-.12s1.51-.13,2.14-.13a4,4,0,0,1,.85.07,4.89,4.89,0,0,1-1.62.57,19.17,19.17,0,0,0-4.75,1.81c-1,.55-1.84,1.05-2.58,1.48a14,14,0,0,1-3.51,1.75A1.06,1.06,0,0,0,195,17.57c-.06.4-.09.6-.67.72a2.81,2.81,0,0,1-.59.06,6.94,6.94,0,0,1-1.62-.27,4.4,4.4,0,0,0-1.15-.21,1.19,1.19,0,0,0-.79.26,1.25,1.25,0,0,0-.35,1.08c0,.25,0,.38-.06.45s-.33.24-1.25.24l-.49,0h-.65c-1.78,0-5,.51-5,1.52a.61.61,0,0,0,.49.59,2,2,0,0,0,.55.06h.91c.38,0,.78,0,1.2,0,1.85,0,2.47.26,2.67.47a.21.21,0,0,1,.07.2c-.07,1.25-2.18,3.63-3.51,3.63-.45,0-.95,0-1.42-.07s-.92-.06-1.29-.06-1.54,0-1.54.9a2,2,0,0,0,.33.93,1.67,1.67,0,0,1,.17.37h0a2.09,2.09,0,0,1-.48.18,12.61,12.61,0,0,1-3.1.42,6.63,6.63,0,0,1-1.89-.24,2.08,2.08,0,0,0-.6-.09,1.72,1.72,0,0,0-1.48.77.93.93,0,0,0,0,.94c.15.26.5.56,1.32.56a3.78,3.78,0,0,0,.63-.05,14,14,0,0,1,1.8-.14c1.06,0,1.74.21,1.83.57a.71.71,0,0,0,.72.56,2.06,2.06,0,0,0,.83-.25,2.57,2.57,0,0,1,.77-.24c.08,0,.11,0,.15.08.26.41.28.69.22.8s-.33.22-.69.22a3,3,0,0,0-2.52.8A3,3,0,0,1,176.83,33.86ZM128,30a2.38,2.38,0,0,1-1.44-.9A1.94,1.94,0,0,1,126,28a4.08,4.08,0,0,1,1.7,1.21c.38.44.44.69.43.75h0A.41.41,0,0,1,128,30Zm28.59-.38a1.54,1.54,0,0,1-.58-.1c-.22-.08-.29-.16-.29-.18a.33.33,0,0,1,.1-.17,1.54,1.54,0,0,1,1.07-.4,1.65,1.65,0,0,1,.69.15c.25.13.29.23.29.23A1.67,1.67,0,0,1,156.56,29.64ZM114,29.35h-.22c-2.22-.2-2.22-.8-2.22-1.29s2.23-.85,3.42-1l1.24-.14a4.26,4.26,0,0,1,.47,0c-.6.19-1.12.53-1.08,1a.64.64,0,0,0,.53.58A3.34,3.34,0,0,1,114,29.35Zm32.94-.52a3,3,0,0,1-1-.14,17.72,17.72,0,0,1,3.91-.58A7.53,7.53,0,0,1,146.92,28.83Zm-37.74-1.12a1.82,1.82,0,0,1-.89-.33h.11a2.42,2.42,0,0,1,1.08.18c0,.1-.13.15-.3.15Zm28.5-.82a3.7,3.7,0,0,1-2.07-1,5.9,5.9,0,0,0-3.79-1.38,6.53,6.53,0,0,0-1.07.09.89.89,0,0,0,.28-.35,1.1,1.1,0,0,0-.13-1.07,2.81,2.81,0,0,0-2.21-1.1,1.91,1.91,0,0,0-1.07.3.2.2,0,0,1-.14.05c-.32,0-.75-.51-.84-1,0-.28,0-.31.1-.33a6.72,6.72,0,0,1,2-.22c1.95,0,3,.39,3.12.58a1.58,1.58,0,0,0,.11.7.71.71,0,0,0,.66.44,1.75,1.75,0,0,0,.82-.3,4.53,4.53,0,0,1,.44-.23c.09,0,.31.29.43.46a2,2,0,0,0,1.51,1,2.84,2.84,0,0,1,2,.66c-.4.81.25,1.31.6,1.58.12.09.38.29.38.36s0,.09-.13.23A1.24,1.24,0,0,1,137.68,26.89Zm6.18-.05c-.27,0-.82-.4-1.37-1.27a4.43,4.43,0,0,1-.82-2.17,8.28,8.28,0,0,1,2.21.91,4.13,4.13,0,0,0,1.5.62h.31l.13-.18a1.87,1.87,0,0,1,.45,0,2.11,2.11,0,0,1,.94.17,1.16,1.16,0,0,0-.12,1.43A9,9,0,0,1,143.86,26.84Zm12.31-1.15a9.19,9.19,0,0,1-3.58-1.06.72.72,0,0,0,0-.25c-.12-.5-.77-.89-1.82-1.47-.24-.13-.49-.27-.7-.4l.7-.16c1.32-.29,2.15-.5,2.45-1a.8.8,0,0,0,.05-.66C153,20,152.11,20,151.78,20a15,15,0,0,0-1.84.17,18.31,18.31,0,0,1-2,.17,2.4,2.4,0,0,1-.88-.12,1.19,1.19,0,0,1-.77-.81,2.16,2.16,0,0,0-1.17-1.32,1.75,1.75,0,0,1-.4-.25h.06a2.79,2.79,0,0,1,.7.11,3.2,3.2,0,0,0,.87.12c.85,0,1.74-.36,1.78-1,0-.31-.13-.87-1.38-1-.75-.1-1.07-.49-1.05-.81s.26-.42.62-.42c2.78,0,2.89-.61,2.94-.86.08-.48-.33-.77-.71-.94h.22l.55,0h.23c.82,0,1.15-.38,1.19-.74a.9.9,0,0,0-.58-.86,3.86,3.86,0,0,1,2.16,1,14.14,14.14,0,0,0,4.43,2.39,5.45,5.45,0,0,1,1.76.85,2.67,2.67,0,0,0,2.1,1.72.79.79,0,0,0,.62-.28.87.87,0,0,0,.13-.72h.05a1.24,1.24,0,0,1,.46.11.85.85,0,0,0-.28.64c0,.46.43.71.79.94a1.67,1.67,0,0,1,.44.33,1,1,0,0,0-.26,1.24c.27.57,1,.89,2,.89a4.18,4.18,0,0,0,.59,0,3.94,3.94,0,0,1,.47,0c.53,0,.82.12.91.24-.07.15-.77.29-1.24.39a10.75,10.75,0,0,0-1.81.48A3,3,0,0,0,162.1,23a2.82,2.82,0,0,1-.18.29.68.68,0,0,0-.4-.13c-.62,0-.87.64-1.13,1.32-.11.29-.37,1-.54,1a5.88,5.88,0,0,0-2-.43,1.69,1.69,0,0,0-1.48.65A1,1,0,0,1,156.17,25.69Zm-38.83-.39a3.16,3.16,0,0,1-1.6-.39,1.08,1.08,0,0,0-.72-.27,2.32,2.32,0,0,0-.93.27,2.22,2.22,0,0,1-.72.21.57.57,0,0,1-.18,0,2,2,0,0,0-.75-.14,4.17,4.17,0,0,0-.71.08,2.63,2.63,0,0,1-.48.06h0c.42-.13,1-.25,1.48-.34a7.36,7.36,0,0,0,2-.55A3,3,0,0,1,116,24c1.27,0,2.34.39,2.34.85S117.7,25.3,117.34,25.3ZM128.78,25a1.12,1.12,0,0,1-.68-.17l.5,0c.3,0,.61,0,.91,0h0A3.1,3.1,0,0,1,128.78,25Zm10.74-6.51a2.4,2.4,0,0,1-1.09-.64,2.5,2.5,0,0,1,1.25.59A.24.24,0,0,1,139.52,18.47Z"></path>
</svg>